<?xml version="1.0" standalone="no"?>
<!DOCTYPE svg PUBLIC "-//W3C//DTD SVG 20010904//EN"
 "http://www.w3.org/TR/2001/REC-SVG-20010904/DTD/svg10.dtd">
<svg version="1.0" xmlns="http://www.w3.org/2000/svg"
 width="723.000000pt" height="723.000000pt" viewBox="0 0 723.000000 723.000000"
 preserveAspectRatio="xMidYMid meet">
<metadata>
Created by potrace 1.11, written by Peter Selinger 2001-2013
</metadata>
<g transform="translate(0.000000,723.000000) scale(0.100000,-0.100000)"
fill="#000000" stroke="none">
<path d="M1235 6700 c-3 -5 -2 -10 4 -10 5 0 13 5 16 10 3 6 2 10 -4 10 -5 0
-13 -4 -16 -10z"/>
<path d="M1205 6670 c-3 -6 1 -7 9 -4 18 7 21 14 7 14 -6 0 -13 -4 -16 -10z"/>
<path d="M1025 6575 c-25 -12 -26 -14 -5 -9 28 7 60 23 45 23 -5 0 -23 -6 -40
-14z"/>
<path d="M128 6563 c7 -3 16 -2 19 1 4 3 -2 6 -13 5 -11 0 -14 -3 -6 -6z"/>
<path d="M970 6560 c-13 -8 -12 -10 3 -10 9 0 17 5 17 10 0 12 -1 12 -20 0z"/>
<path d="M433 6543 c9 -2 25 -2 35 0 9 3 1 5 -18 5 -19 0 -27 -2 -17 -5z"/>
<path d="M490 6536 c0 -2 18 -6 40 -8 22 -2 40 0 40 4 0 5 -18 8 -40 8 -22 0
-40 -2 -40 -4z"/>
<path d="M623 6523 c15 -2 39 -2 55 0 15 2 2 4 -28 4 -30 0 -43 -2 -27 -4z"/>
<path d="M743 6523 c9 -2 23 -2 30 0 6 3 -1 5 -18 5 -16 0 -22 -2 -12 -5z"/>
<path d="M543 5292 c-14 -2 -20 -8 -16 -18 3 -8 1 -14 -5 -14 -6 0 -12 4 -14
10 -1 5 -4 -10 -5 -35 -1 -26 3 -43 8 -40 5 4 5 -5 -1 -20 -13 -35 -13 -41 6
-59 12 -12 12 -16 2 -17 -7 -1 -20 -2 -28 -3 -19 -1 -42 -48 -30 -60 14 -14
12 -26 -5 -26 -8 0 -17 -12 -21 -27 -3 -16 -17 -47 -30 -70 -14 -24 -24 -46
-24 -50 0 -16 -32 -118 -41 -129 -6 -7 -9 -27 -8 -45 2 -19 -7 -56 -19 -83
-12 -27 -22 -59 -22 -72 0 -12 -5 -26 -11 -30 -8 -4 1 -14 22 -25 l34 -19 -29
2 c-23 3 -29 -1 -32 -20 -2 -13 -10 -35 -18 -50 -8 -15 -17 -46 -21 -67 -4
-22 -9 -47 -12 -55 -3 -8 -7 -22 -9 -30 -11 -58 -42 -169 -52 -187 -7 -12 -12
-33 -12 -47 0 -14 -9 -48 -20 -76 -11 -27 -17 -50 -14 -50 4 0 -1 -11 -10 -25
-9 -13 -16 -30 -16 -38 0 -7 -5 -18 -12 -25 -6 -6 -12 -34 -13 -62 -1 -30 -8
-57 -18 -68 -10 -10 -17 -24 -17 -30 0 -6 -7 -18 -17 -27 -9 -10 -12 -20 -7
-23 5 -4 8 -27 6 -52 -3 -25 -6 -198 -9 -385 -4 -323 -3 -341 15 -351 31 -20
72 -5 87 30 7 17 16 30 19 29 16 -7 17 -1 3 15 -10 10 -15 21 -12 24 6 5 23
88 36 168 13 77 14 84 21 95 10 17 30 140 32 200 0 16 8 37 17 46 9 9 20 50
27 100 7 46 26 122 42 169 17 47 37 108 44 135 7 28 19 64 27 80 7 17 14 44
15 60 2 41 9 79 28 150 11 40 13 61 6 63 -7 3 -7 8 1 18 6 7 13 28 15 46 7 53
33 192 40 208 14 36 21 110 10 110 -6 0 -3 7 8 15 10 7 15 18 11 24 -3 6 -3
11 2 11 10 0 33 71 33 103 0 13 4 27 9 33 10 10 32 115 33 154 0 14 3 19 5 11
3 -7 17 15 30 49 16 40 22 65 15 69 -13 8 -22 64 -15 92 5 16 8 18 15 7 10
-13 7 -1 -9 39 -5 12 -3 14 7 8 10 -6 11 -2 6 18 -3 14 -2 28 2 31 5 3 7 18 4
35 -3 22 -11 31 -30 36 -15 4 -29 10 -32 13 -3 4 -15 6 -27 4z m7 -462 c0 -5
-6 -10 -14 -10 -8 0 -18 5 -21 10 -3 6 3 10 14 10 12 0 21 -4 21 -10z m-375
-1470 c7 -12 -2 -12 -30 0 -19 8 -19 9 2 9 12 1 25 -3 28 -9z"/>
<path d="M17 5057 c-14 -37 -19 -128 -7 -142 20 -24 30 -18 30 18 0 91 -2 86
30 77 32 -9 40 -5 40 21 0 10 -12 21 -31 28 -42 14 -56 14 -62 -2z"/>
<path d="M2628 4343 c7 -3 16 -2 19 1 4 3 -2 6 -13 5 -11 0 -14 -3 -6 -6z"/>
<path d="M2640 4156 c14 -7 29 -10 34 -8 11 6 -20 20 -44 21 -8 0 -4 -5 10
-13z"/>
<path d="M2680 4046 c0 -2 7 -7 16 -10 8 -3 12 -2 9 4 -6 10 -25 14 -25 6z"/>
<path d="M2624 3938 c-2 -3 0 -18 6 -33 13 -34 13 -35 -7 -35 -15 0 -16 -2 -3
-10 22 -14 73 -12 94 3 17 12 17 14 3 20 -14 5 -15 11 -7 32 6 15 10 28 10 30
0 7 -91 0 -96 -7z"/>
<path d="M2738 3893 c7 -3 16 -2 19 1 4 3 -2 6 -13 5 -11 0 -14 -3 -6 -6z"/>
<path d="M2700 3830 c0 -24 -13 -25 -45 -4 -22 14 -24 14 -34 -5 -14 -25 -15
-134 -1 -126 5 3 6 13 3 22 -5 12 -2 15 10 10 9 -3 17 -3 17 1 0 4 11 7 24 7
22 0 23 -1 7 -24 -8 -14 -17 -43 -18 -65 -3 -39 -2 -40 11 -16 8 15 9 30 4 37
-11 14 7 27 24 17 6 -4 8 -3 4 4 -5 9 13 10 53 3 2 -1 -2 -7 -8 -14 -6 -8 -8
-17 -4 -20 11 -12 23 -8 23 7 0 8 5 18 11 22 7 4 10 -8 9 -37 -1 -24 -1 -70
-1 -102 1 -55 2 -58 24 -55 21 3 22 7 19 72 l-4 69 32 -7 c18 -3 52 -6 76 -6
l44 0 -1 -47 c-3 -75 -1 -83 21 -83 19 0 20 7 20 145 0 138 -1 145 -20 145
-18 0 -20 -7 -20 -60 l0 -60 -75 0 -75 0 0 60 c0 53 -2 60 -20 60 -17 0 -20
-7 -20 -40 0 -42 -9 -50 -30 -25 -7 8 -19 15 -26 15 -15 0 -19 12 -7 23 3 4
12 2 19 -4 9 -8 11 -5 7 10 -3 11 -13 20 -22 19 -38 -3 -71 3 -71 12 0 6 18
10 40 10 22 0 40 5 40 10 0 6 -5 10 -11 10 -5 0 -8 4 -5 9 3 5 -1 11 -9 15
-10 4 -15 -1 -15 -14z"/>
<path d="M1540 3765 c0 -11 12 -15 45 -15 l45 0 0 -130 c0 -123 1 -130 20
-130 19 0 20 7 20 130 l0 130 45 0 c33 0 45 4 45 15 0 12 -19 15 -110 15 -91
0 -110 -3 -110 -15z"/>
<path d="M1890 3635 c0 -122 2 -145 15 -145 12 0 15 14 15 70 l0 70 75 0 75 0
0 -70 c0 -63 2 -70 20 -70 19 0 20 7 20 145 0 138 -1 145 -20 145 -18 0 -20
-7 -20 -60 l0 -60 -75 0 -75 0 0 60 c0 47 -3 60 -15 60 -13 0 -15 -23 -15
-145z"/>
<path d="M2250 3635 l0 -145 105 0 c87 0 105 3 105 15 0 16 -5 17 -102 15
l-68 -1 0 56 0 56 63 -1 c91 -2 97 -1 97 15 0 12 -16 15 -80 15 l-80 0 0 45 0
45 85 0 c69 0 85 3 85 15 0 12 -18 15 -105 15 l-105 0 0 -145z"/>
<path d="M3160 3635 l0 -145 105 0 c87 0 105 3 105 15 0 12 -16 15 -85 15
l-85 0 0 55 0 55 80 0 c64 0 80 3 80 15 0 12 -16 15 -80 15 l-80 0 0 45 0 45
85 0 c69 0 85 3 85 15 0 12 -18 15 -105 15 l-105 0 0 -145z"/>
<path d="M3510 3635 c0 -138 1 -145 20 -145 18 0 20 7 20 65 0 63 1 65 26 65
40 0 61 -16 99 -75 27 -43 40 -55 60 -55 l25 0 -30 49 c-17 27 -37 54 -45 61
-12 10 -9 17 20 45 39 36 42 52 20 94 -19 37 -31 41 -131 41 l-84 0 0 -145z
m162 103 c51 -42 16 -88 -67 -88 l-55 0 0 50 0 50 53 0 c29 0 60 -6 69 -12z"/>
<path d="M3870 3635 l0 -145 85 0 c78 0 88 2 110 25 31 30 32 73 4 109 -19 24
-19 27 -5 48 22 32 20 55 -9 83 -22 22 -32 25 -105 25 l-80 0 0 -145z m158 76
c5 -33 -21 -51 -75 -51 l-43 0 0 40 0 41 58 -3 c52 -3 57 -5 60 -27z m12 -116
c4 -11 4 -30 -1 -42 -7 -18 -16 -23 -46 -23 -21 0 -48 -3 -60 -6 -22 -6 -23
-3 -23 47 l0 54 61 -5 c50 -4 63 -9 69 -25z"/>
<path d="M4297 3773 c-6 -10 -107 -275 -107 -280 0 -3 10 -3 23 -1 16 2 26 14
35 46 l14 42 58 0 57 0 17 -45 c14 -36 22 -45 42 -45 24 0 24 0 8 38 -8 20
-26 64 -39 97 -47 121 -65 155 -85 155 -10 0 -21 -3 -23 -7z m47 -100 c22 -63
22 -63 -24 -63 -22 0 -40 3 -40 8 0 16 34 102 41 102 4 0 14 -21 23 -47z"/>
<path d="M4570 3635 l0 -145 90 0 c72 0 90 3 90 15 0 11 -17 15 -72 17 l-73 3
-1 115 c-1 142 -1 140 -19 140 -13 0 -15 -23 -15 -145z"/>
<path d="M4880 3635 c0 -122 2 -145 15 -145 13 0 15 23 15 145 0 122 -2 145
-15 145 -13 0 -15 -23 -15 -145z"/>
<path d="M5105 3768 c-48 -26 -59 -74 -26 -107 11 -11 47 -27 80 -37 33 -9 66
-23 72 -30 17 -21 6 -48 -25 -63 -40 -19 -103 0 -116 35 -10 27 -40 33 -40 8
0 -93 186 -116 218 -27 19 57 -14 92 -106 113 -55 13 -77 34 -61 62 21 38 115
29 126 -12 3 -12 14 -20 25 -20 14 0 18 5 14 16 -3 9 -6 20 -6 25 0 5 -15 18
-32 29 -36 22 -92 26 -123 8z"/>
<path d="M5390 3759 c0 -15 4 -19 19 -14 11 3 31 3 45 -1 l26 -6 0 -124 c0
-117 1 -124 20 -124 19 0 20 7 20 124 l0 125 47 3 c36 2 49 7 51 21 3 15 -7
17 -112 17 -111 0 -116 -1 -116 -21z"/>
<path d="M2671 3594 c-7 -8 -11 -17 -9 -20 3 -2 13 5 23 16 10 11 14 20 9 20
-5 -1 -15 -8 -23 -16z"/>
<path d="M7109 3584 c-5 -16 -8 -40 -6 -53 3 -14 1 -36 -4 -50 -7 -17 -6 -27
3 -33 7 -4 9 -8 3 -8 -5 0 -1 -7 9 -15 17 -13 18 -15 3 -15 -18 0 -24 -35 -7
-45 5 -3 6 -16 2 -28 -4 -12 -6 -31 -6 -42 1 -11 2 -30 3 -43 1 -20 4 -21 21
-12 11 6 20 17 20 25 0 8 7 15 16 15 14 0 15 -2 3 -17 -8 -10 -20 -23 -28 -29
-8 -6 -11 -16 -7 -22 3 -6 2 -13 -3 -17 -6 -3 -8 -24 -5 -47 5 -30 2 -45 -8
-52 -8 -6 -20 -21 -26 -33 -10 -18 -9 -20 7 -16 14 3 21 -3 30 -28 6 -17 11
-44 11 -60 0 -39 9 -59 26 -52 20 7 17 -10 -6 -40 -11 -14 -20 -29 -20 -34 0
-5 9 -15 20 -23 23 -17 27 -50 6 -50 -8 0 -16 -5 -18 -11 -2 -7 -12 -7 -31 2
-23 10 -27 19 -27 51 0 21 -4 38 -10 38 -5 0 -10 -5 -10 -11 0 -5 -4 -7 -10
-4 -5 3 -10 15 -10 26 0 10 -5 19 -11 19 -6 0 -9 13 -7 30 2 19 -3 34 -12 40
-12 7 -12 13 -1 33 11 20 11 32 1 62 -8 24 -10 59 -6 95 5 39 3 61 -4 65 -8 5
-11 -2 -9 -21 2 -16 -4 -44 -13 -62 -9 -18 -12 -30 -7 -27 5 4 9 -1 9 -9 0 -9
-4 -16 -10 -16 -5 0 -10 -9 -10 -19 0 -11 -4 -23 -10 -26 -6 -4 -10 7 -10 24
0 17 -5 31 -11 31 -6 0 -8 9 -3 22 6 20 5 21 -10 9 -9 -8 -19 -11 -22 -9 -3 3
7 15 22 27 33 26 26 39 -9 16 -32 -20 -46 -93 -22 -111 20 -15 20 -74 0 -74
-8 0 -15 -7 -15 -17 0 -15 1 -15 18 0 28 25 35 21 29 -17 -3 -19 0 -39 6 -45
8 -8 7 -11 -5 -11 -8 0 -21 -6 -27 -14 -9 -11 -8 -15 5 -20 13 -5 14 -9 5 -20
-8 -10 -9 -16 -1 -21 6 -3 8 -10 5 -15 -8 -13 -35 0 -35 17 0 8 -5 11 -10 8
-6 -3 -13 1 -16 9 -9 23 -24 20 -24 -4 0 -11 -4 -20 -10 -20 -5 0 -10 -4 -10
-10 0 -5 11 -10 25 -10 22 0 25 -3 19 -25 -4 -15 -2 -25 5 -25 6 0 11 5 11 12
0 6 3 8 7 5 3 -4 12 1 19 11 10 13 13 14 14 3 0 -8 7 -23 16 -33 16 -16 16
-18 0 -24 -9 -3 -23 -1 -31 6 -13 11 -15 8 -13 -14 3 -32 28 -43 45 -20 15 20
14 21 15 -42 1 -45 -19 -84 -42 -84 -20 0 -22 31 -5 50 18 19 17 20 -7 20 -32
0 -58 -27 -35 -36 11 -4 15 -16 13 -40 -2 -33 -1 -34 51 -49 31 -9 53 -21 53
-30 0 -17 33 -28 59 -20 13 4 23 0 29 -11 13 -23 -24 -67 -50 -58 -10 3 -18 1
-18 -5 0 -6 -7 -8 -15 -5 -16 6 -48 -19 -38 -30 4 -3 35 -6 69 -6 34 0 75 -5
90 -10 28 -11 121 -16 130 -7 3 2 4 26 2 52 l-3 47 -27 -22 c-17 -13 -37 -20
-50 -17 l-23 4 23 8 c22 7 31 25 12 25 -5 0 -10 7 -10 15 0 18 20 20 21 3 0
-7 5 1 11 17 6 17 17 35 24 40 7 6 15 26 18 45 3 19 3 29 0 23 -7 -15 -34 -17
-34 -3 0 6 5 10 11 10 7 0 9 11 5 31 -7 36 2 81 15 73 5 -3 9 126 9 306 0 205
-3 309 -10 305 -6 -3 -14 5 -19 19 -8 19 -16 24 -36 21 -19 -2 -25 1 -21 12 3
8 6 17 6 20 0 3 7 -1 17 -8 13 -11 17 -11 20 -1 3 6 11 12 18 12 7 0 16 -6 19
-12 3 -7 5 28 3 77 -1 50 -7 101 -14 115 -7 14 -13 40 -13 59 0 19 -3 31 -7
28 -3 -4 -12 -2 -19 4 -8 7 -14 7 -19 -1 -5 -8 -11 -8 -21 1 -11 9 -16 6 -25
-17z m55 -149 c3 -8 1 -15 -4 -15 -6 0 -10 7 -10 15 0 8 2 15 4 15 2 0 6 -7
10 -15z m31 -355 c-3 -5 -12 -10 -18 -10 -7 0 -6 4 3 10 19 12 23 12 15 0z
m-25 -40 c0 -5 -2 -10 -4 -10 -3 0 -8 5 -11 10 -3 6 -1 10 4 10 6 0 11 -4 11
-10z m40 -130 c0 -5 -4 -10 -10 -10 -5 0 -10 5 -10 10 0 6 5 10 10 10 6 0 10
-4 10 -10z m-49 -397 c-9 -15 -10 -13 -11 13 0 17 3 34 8 38 11 12 14 -32 3
-51z m-201 -15 c0 -21 -1 -21 -34 -8 -35 13 -33 27 4 26 21 -1 30 -6 30 -18z"/>
<path d="M2618 3565 c2 -14 6 -25 8 -25 2 0 4 11 4 25 0 14 -4 25 -9 25 -4 0
-6 -11 -3 -25z"/>
<path d="M2725 3560 c4 -6 11 -8 16 -5 14 9 11 15 -7 15 -8 0 -12 -5 -9 -10z"/>
<path d="M2650 3525 c0 -8 4 -15 10 -15 5 0 7 7 4 15 -4 8 -8 15 -10 15 -2 0
-4 -7 -4 -15z"/>
<path d="M2625 3508 c3 -13 7 -50 9 -83 2 -33 9 -93 16 -133 6 -41 9 -76 6
-79 -3 -3 0 -15 6 -27 7 -11 12 -41 13 -66 3 -81 5 -88 21 -104 8 -9 11 -16 5
-16 -15 0 -14 -38 5 -110 20 -78 25 -151 11 -168 -7 -9 -7 -16 1 -24 15 -15
16 -32 2 -23 -6 4 -10 -6 -10 -23 0 -31 17 -42 68 -42 12 0 22 -4 22 -10 0 -5
-16 -10 -35 -10 -26 0 -35 -4 -36 -17 0 -14 -2 -15 -6 -3 -3 8 -10 21 -16 28
-9 11 -12 11 -17 -4 -6 -16 -9 -15 -24 11 -10 17 -14 21 -11 10 12 -36 10 -40
-22 -55 -25 -12 -33 -23 -38 -52 -8 -46 0 -61 31 -54 22 6 23 4 17 -24 -4 -23
-1 -34 13 -45 17 -13 18 -14 2 -15 -10 0 -18 -7 -18 -15 0 -8 -4 -15 -8 -15
-4 0 -9 -20 -10 -44 -1 -39 1 -45 23 -50 14 -4 36 -4 50 0 15 4 25 2 25 -5 0
-6 -12 -11 -26 -11 -23 0 -25 -3 -19 -30 8 -37 -12 -42 -21 -5 -3 14 -11 25
-18 25 -25 0 -100 -28 -104 -38 -6 -19 19 -24 37 -8 17 16 18 15 14 -9 -3 -14
-9 -25 -14 -25 -5 0 -19 -10 -31 -22 l-21 -21 -43 49 c-40 46 -51 71 -20 45 9
-8 16 -8 20 -2 4 5 -3 12 -14 16 -11 3 -20 11 -20 16 0 5 -9 9 -19 9 -11 0
-32 5 -48 12 -15 6 -30 12 -33 13 -3 0 -22 7 -43 14 -20 7 -43 10 -50 8 -6 -3
-4 -6 7 -6 10 -1 35 -9 55 -20 20 -10 49 -25 65 -32 16 -8 40 -31 53 -51 13
-21 30 -38 38 -38 8 0 15 -4 15 -10 0 -5 -6 -7 -14 -4 -8 3 -17 1 -21 -5 -10
-17 -23 -13 -30 10 -4 12 -14 29 -23 40 -15 17 -17 17 -44 1 -25 -15 -30 -15
-38 -2 -7 10 -5 19 6 26 12 10 11 13 -11 18 -14 4 -29 4 -34 2 -4 -3 -27 1
-52 9 -24 7 -38 14 -31 14 7 1 11 5 8 10 -4 5 3 7 14 4 12 -3 20 0 20 8 0 7
-3 9 -6 6 -4 -3 -15 -2 -24 3 -14 7 -20 5 -25 -8 -15 -33 -10 -57 14 -77 l24
-19 -29 -13 c-16 -6 -22 -12 -14 -13 13 0 13 -2 0 -9 -8 -6 -18 -7 -22 -5 -12
8 -9 -11 4 -24 17 -17 2 -15 -27 4 -15 10 -25 12 -25 5 0 -6 -6 -11 -14 -11
-8 0 -16 -7 -19 -14 -4 -10 -1 -13 9 -9 8 3 14 -1 14 -11 0 -12 -7 -14 -30
-10 -26 6 -30 4 -30 -15 0 -11 -5 -21 -11 -21 -8 0 -7 -5 1 -15 10 -13 10 -19
-4 -33 -9 -10 -16 -27 -16 -38 1 -18 2 -18 19 3 10 12 21 19 25 16 3 -4 6 -1
6 7 0 10 3 10 15 0 12 -10 15 -10 15 4 0 10 8 16 21 16 14 0 19 -5 16 -15 -4
-8 -2 -17 3 -20 6 -4 10 -11 10 -16 0 -6 -6 -7 -12 -2 -7 4 -30 8 -50 8 -29 0
-38 -3 -38 -16 0 -9 -7 -22 -15 -29 -17 -14 -20 -40 -4 -40 6 0 13 9 16 20 7
27 35 25 62 -4 22 -24 22 -25 4 -52 l-18 -28 -3 37 c-2 20 -7 37 -11 37 -10 0
-30 -89 -21 -95 15 -9 18 -55 4 -55 -16 0 -74 -52 -74 -66 0 -6 9 -10 20 -10
11 0 20 6 20 14 0 22 33 9 36 -15 3 -18 -1 -21 -24 -18 -15 2 -33 -2 -40 -8
-9 -7 -16 -7 -24 1 -6 6 -17 8 -24 5 -9 -3 -14 2 -14 17 0 12 -4 18 -10 15 -6
-4 -8 -16 -4 -28 5 -17 3 -19 -6 -11 -13 13 -50 7 -50 -7 0 -5 -4 -9 -10 -9
-5 0 -10 6 -10 14 0 13 -29 26 -60 26 -8 0 -26 -10 -40 -21 l-25 -21 27 6 c14
3 33 9 42 12 9 4 25 -5 40 -21 22 -23 27 -25 32 -11 10 27 53 20 65 -10 l10
-27 22 21 c21 20 24 20 54 6 21 -10 31 -23 30 -35 -1 -13 -6 -18 -17 -13 -8 3
-27 7 -42 9 -24 4 -28 1 -28 -20 0 -18 -6 -25 -19 -25 -10 0 -21 -9 -24 -20
-5 -18 -1 -19 40 -14 39 4 45 3 39 -11 -3 -9 -6 -21 -6 -26 0 -6 -5 -7 -10 -4
-6 4 -8 11 -5 16 3 5 -1 6 -9 3 -25 -10 -18 -22 17 -29 17 -4 35 -13 39 -19
10 -14 3 42 -7 67 -4 10 -4 21 -1 24 4 4 9 -3 12 -15 4 -12 14 -24 25 -27 10
-3 21 -15 24 -26 9 -26 20 -24 33 7 16 35 32 21 33 -29 l2 -42 6 34 c3 19 12
37 20 39 10 3 12 0 8 -11 -3 -9 -2 -19 3 -22 19 -12 15 46 -7 92 -9 20 -20 30
-29 26 -10 -3 -14 2 -14 18 0 19 2 21 10 9 9 -13 10 -13 10 0 0 8 8 24 17 35
15 19 15 19 10 -10 -3 -17 -2 -37 4 -45 6 -10 9 -11 9 -2 0 6 6 12 14 12 8 0
23 11 34 24 18 23 23 24 93 19 41 -3 85 -5 99 -4 14 0 32 -3 40 -6 16 -6 27
-9 48 -11 8 -1 12 -12 10 -29 -2 -16 -8 -27 -16 -25 -8 1 -12 -7 -10 -25 3
-27 1 -28 -42 -28 -44 0 -91 -18 -79 -30 10 -9 59 5 59 17 0 6 6 5 15 -2 8 -7
22 -10 30 -6 13 4 15 -9 15 -87 -1 -113 -8 -126 -70 -121 -52 5 -119 -21 -101
-39 7 -7 16 -6 29 6 23 21 56 22 72 2 7 -8 9 -15 5 -15 -4 0 -3 -6 2 -12 18
-23 23 -47 9 -42 -7 3 -29 -7 -49 -21 -39 -26 -55 -24 -95 12 -7 7 -19 13 -25
13 -7 -1 -2 -9 11 -19 15 -13 18 -21 10 -24 -8 -2 -9 -8 -4 -13 5 -5 11 -4 13
4 3 6 9 12 15 12 6 0 8 -6 5 -14 -3 -8 -1 -17 6 -20 7 -3 -1 -4 -17 -3 -16 1
-31 -4 -33 -10 -3 -7 -1 -13 4 -13 22 -1 36 -22 40 -61 3 -24 12 -59 20 -77
14 -30 19 -32 47 -27 22 5 27 3 16 -4 -12 -8 -12 -13 4 -30 20 -22 22 -20 -28
-35 -17 -6 -40 19 -32 33 3 5 -1 11 -9 15 -8 3 -15 15 -15 26 0 11 -2 20 -4
20 -15 0 -76 -32 -76 -40 0 -7 7 -7 20 0 22 12 60 5 60 -11 0 -6 -9 -7 -20 -4
-11 4 -20 2 -20 -4 0 -19 -28 -12 -44 10 -12 17 -12 25 -3 40 7 11 18 17 24
14 7 -2 13 0 13 6 0 16 -31 23 -51 11 -13 -9 -19 -8 -22 1 -5 15 13 57 25 57
4 0 8 8 8 18 0 9 -4 13 -8 7 -4 -5 -11 -11 -17 -12 -5 -1 -18 -5 -27 -8 -21
-8 -25 14 -6 33 15 15 5 24 -27 25 -24 0 -25 2 -19 36 8 45 10 47 29 31 13
-10 15 -9 15 9 0 17 -6 21 -30 21 -20 0 -30 -5 -30 -15 0 -7 -6 -18 -14 -22
-7 -4 -18 -21 -24 -38 -9 -27 -11 -24 -12 35 -1 36 -4 56 -7 45 -14 -69 -13
-67 -28 -55 -12 10 -15 9 -15 -4 0 -9 -4 -16 -10 -16 -5 0 -10 -12 -10 -26 0
-19 4 -25 15 -20 8 3 15 1 15 -4 0 -14 -24 -12 -38 2 -10 10 -15 10 -20 1 -4
-7 -21 -11 -37 -9 -30 4 -30 4 -28 65 1 35 -2 59 -8 56 -5 -4 -9 -21 -9 -40 0
-21 -6 -35 -16 -39 -8 -3 -12 -10 -9 -16 5 -9 -15 -15 -38 -11 -5 1 -6 -3 -2
-9 3 -6 11 -8 16 -5 5 4 9 2 9 -3 0 -5 -10 -12 -22 -15 -17 -5 -19 -9 -9 -21
10 -11 8 -17 -11 -30 -12 -9 -29 -16 -38 -16 -19 -1 -52 -25 -44 -33 3 -3 -4
-8 -16 -12 -33 -11 -17 -30 24 -29 35 0 37 -1 31 -25 -8 -33 -35 -63 -51 -57
-8 3 -11 -1 -7 -10 3 -7 0 -14 -6 -14 -6 0 -11 -11 -11 -25 0 -13 -8 -28 -17
-34 -23 -11 -117 -18 -121 -9 -2 4 -10 24 -18 44 -11 27 -12 39 -4 49 9 11 8
23 -1 50 -13 36 -29 47 -29 19 0 -9 -6 -14 -12 -11 -12 4 -13 35 -2 46 2 2 15
-1 29 -7 14 -6 39 -9 55 -5 24 4 29 10 25 24 -5 16 -1 19 24 19 18 0 31 5 31
13 1 8 5 6 13 -4 8 -11 18 -14 32 -8 11 4 15 8 9 8 -7 1 -15 13 -19 28 -3 15
-10 30 -13 33 -9 7 -42 69 -42 80 0 4 14 7 30 6 18 -1 29 2 27 8 -2 6 -18 9
-36 8 -24 -3 -32 0 -29 10 3 7 15 12 27 11 12 -2 21 3 21 11 0 8 8 17 18 21
16 6 16 7 -2 17 -15 9 -22 7 -33 -8 -25 -34 -14 9 12 48 30 45 31 46 3 58 -21
8 -20 9 10 9 31 1 32 2 17 17 -9 9 -25 14 -35 11 -11 -3 -20 -1 -20 4 0 5 -10
4 -22 -2 -21 -11 -22 -11 -9 4 7 10 24 17 37 17 27 0 33 27 9 36 -22 9 -19 19
11 39 20 13 28 14 40 4 8 -7 13 -18 10 -25 -3 -7 -2 -15 2 -18 16 -10 33 12
34 42 1 18 5 32 10 32 5 0 4 9 -2 19 -14 28 -13 33 8 22 9 -5 25 -12 35 -15
10 -3 15 -11 12 -16 -14 -22 -23 -70 -14 -70 5 0 9 7 9 15 0 8 5 15 10 15 6 0
9 3 8 8 -1 4 6 19 15 34 10 14 19 36 20 47 1 12 5 21 10 21 4 0 5 5 1 11 -3 6
0 15 7 20 10 6 8 9 -10 9 -20 0 -22 3 -16 27 7 28 7 28 -12 7 -10 -11 -23 -19
-30 -17 -7 3 -15 -7 -19 -22 -5 -19 -11 -24 -24 -20 -12 4 -19 -1 -23 -15 -3
-11 -12 -20 -21 -20 -10 0 -13 6 -9 18 6 16 5 16 -14 0 -23 -21 -63 -24 -63
-5 0 8 -4 7 -10 -3 -8 -13 -10 -13 -10 2 0 11 -6 15 -20 11 -20 -5 -28 11 -11
21 5 3 7 15 4 27 -5 16 -12 19 -42 17 -22 -2 -35 -8 -33 -15 1 -7 -5 -13 -13
-13 -8 0 -12 6 -9 14 3 8 -4 20 -15 28 -14 10 -17 18 -10 28 5 8 9 21 9 29 0
11 -3 11 -15 1 -12 -10 -21 -10 -38 -2 -36 17 -69 22 -87 12 -18 -10 -80 7
-80 22 0 7 24 4 53 -7 10 -4 17 -3 17 4 0 6 -4 11 -10 11 -22 0 -8 20 25 36
34 16 47 34 24 34 -8 0 -8 4 -1 13 6 7 11 22 11 32 0 11 2 54 5 95 4 51 2 76
-6 81 -8 5 -9 11 -1 21 20 26 24 80 7 99 -14 16 -15 21 -3 35 10 12 11 18 3
21 -9 3 -9 12 0 36 6 18 14 34 18 37 4 3 6 26 5 50 -1 26 6 60 16 79 11 22 14
38 7 45 -13 16 -6 66 11 76 7 5 10 13 5 17 -5 4 -11 2 -13 -4 -3 -7 -14 -13
-25 -13 -16 0 -18 -3 -9 -14 7 -8 8 -17 3 -20 -6 -3 -13 -20 -16 -38 -10 -51
-41 -81 -83 -83 -20 0 -38 -6 -41 -13 -2 -7 -9 -9 -15 -5 -6 4 -8 0 -4 -10 4
-12 -3 -19 -28 -29 -36 -13 -43 -22 -24 -34 7 -4 16 0 20 9 5 8 23 18 39 22
17 4 30 11 30 16 0 5 7 9 15 9 8 0 15 -7 15 -15 0 -8 -5 -15 -11 -15 -5 0 -7
-4 -4 -10 12 -20 25 -9 25 20 0 17 4 30 10 30 10 0 9 -75 -2 -85 -4 -4 -5 -12
-2 -19 5 -12 -37 -160 -54 -192 -6 -11 -13 -27 -16 -36 -6 -21 -66 -22 -66 -1
0 7 -4 13 -10 13 -5 0 -10 -6 -10 -12 0 -9 -3 -8 -10 2 -12 20 -24 6 -12 -16
6 -11 6 -29 -1 -50 -8 -26 -16 -34 -34 -34 -20 0 -23 -5 -23 -36 0 -28 -3 -35
-15 -30 -8 3 -15 0 -15 -6 0 -6 -7 -19 -16 -29 -15 -16 -14 -20 1 -51 33 -62
36 -69 30 -78 -4 -6 1 -10 10 -10 11 0 15 -7 13 -22 -4 -27 -32 -31 -65 -11
-13 7 -23 9 -23 4 0 -5 -8 -11 -17 -15 -10 -3 -24 -9 -32 -12 -10 -5 -12 -2
-8 10 4 9 2 16 -3 16 -5 0 -12 -9 -15 -20 -7 -21 -25 -28 -25 -9 0 5 -4 8 -9
4 -17 -10 -22 13 -9 35 11 18 10 23 -5 34 -17 14 -31 71 -21 88 3 5 12 4 20
-3 19 -16 18 0 -3 23 -15 17 -15 19 0 36 10 10 17 25 17 33 0 8 18 29 40 48
22 19 40 40 40 46 0 5 8 26 18 45 11 19 17 40 15 45 -1 6 6 16 16 22 16 10 23
10 36 -3 9 -9 13 -24 10 -33 -3 -10 4 -26 14 -38 19 -20 19 -22 2 -37 -10 -9
-23 -16 -29 -16 -7 0 -12 -7 -12 -15 0 -21 3 -19 41 16 32 30 32 31 16 59 -10
15 -14 35 -11 44 7 19 6 19 38 7 22 -9 25 -7 31 22 4 18 14 39 22 49 13 14 11
17 -16 23 -31 7 -39 19 -21 30 6 3 10 17 10 31 0 17 4 23 13 18 7 -4 9 -3 4 2
-5 5 -12 9 -15 9 -4 0 -13 4 -19 8 -7 5 -13 4 -13 0 0 -5 -15 -8 -34 -8 -26 1
-33 -2 -28 -13 9 -25 -22 -8 -35 19 -11 21 -19 14 -14 -13 0 -5 -6 -8 -14 -8
-8 0 -15 5 -15 11 0 8 -4 8 -15 -1 -11 -9 -19 -8 -37 4 -25 18 -48 21 -48 6 0
-5 8 -7 18 -4 9 3 6 -2 -8 -10 -20 -12 -22 -15 -7 -16 10 0 15 -4 12 -10 -3
-6 4 -10 17 -9 13 0 17 3 10 6 -6 2 -9 9 -6 14 3 6 12 2 20 -8 15 -21 18 -37
5 -29 -12 8 -22 -34 -15 -67 3 -22 -1 -29 -21 -39 -21 -9 -28 -9 -34 1 -6 9
-12 4 -19 -18 -6 -17 -18 -31 -26 -31 -21 0 -20 30 2 46 15 12 14 13 -10 14
-23 0 -28 5 -29 28 -1 15 -1 33 0 40 1 6 -3 12 -9 12 -5 0 -10 4 -10 10 0 5 8
6 17 3 13 -5 15 -2 10 11 -5 12 0 19 19 26 34 13 36 13 33 -7 -3 -31 1 -41 16
-47 11 -4 15 2 14 22 0 24 -1 25 -9 7 -6 -17 -8 -14 -11 15 -3 24 -10 36 -23
38 -11 3 -16 0 -12 -7 11 -17 -11 -13 -29 5 -9 9 -14 23 -11 31 4 11 1 11 -14
3 -17 -9 -20 -8 -20 11 0 12 -3 19 -7 15 -4 -4 -8 -15 -8 -23 0 -9 -6 -18 -12
-20 -8 -3 -13 4 -13 16 0 12 -6 21 -14 21 -8 0 -20 15 -27 34 l-12 34 -26 -24
c-30 -28 -49 -31 -57 -9 -4 8 -13 15 -21 15 -8 0 -11 -4 -8 -10 3 -5 1 -10 -4
-10 -6 0 -11 -8 -11 -17 0 -13 -3 -14 -12 -5 -7 7 -19 12 -27 12 -38 -1 43
-30 88 -33 28 -1 51 -5 51 -9 0 -5 -4 -8 -10 -8 -5 0 -10 -7 -10 -16 0 -13 -6
-15 -28 -9 -15 4 -44 8 -65 10 -21 2 -45 9 -53 16 -21 17 -55 22 -51 8 1 -6
-4 -14 -11 -16 -7 -3 -10 1 -6 10 3 10 -5 18 -27 26 -42 15 -50 14 -43 -4 9
-22 -21 -29 -57 -15 -22 9 -36 10 -52 2 -57 -27 -75 -24 -30 5 25 17 72 23
166 23 22 0 35 4 32 10 -3 6 -2 10 4 10 17 0 1 29 -20 35 -10 4 -19 11 -19 16
0 12 -32 44 -54 52 -13 5 -15 11 -7 25 14 25 -12 62 -43 62 -17 0 -26 -7 -30
-25 -4 -14 -12 -25 -19 -25 -9 0 -8 -3 1 -9 12 -7 12 -12 1 -30 -8 -11 -22
-21 -31 -21 -10 0 -18 -4 -18 -10 0 -5 -4 -10 -10 -10 -5 0 -10 10 -10 21 0
16 5 20 20 16 10 -3 24 1 30 8 15 17 -7 63 -31 67 -18 3 -17 7 9 63 33 69 62
100 62 67 0 -27 69 -42 82 -17 7 12 13 13 23 5 16 -13 37 -5 53 20 10 17 10
20 -4 20 -20 0 -15 32 6 37 13 4 13 3 1 -6 -12 -8 -10 -11 12 -16 15 -4 27
-11 27 -16 0 -10 49 -1 66 12 6 5 20 2 32 -7 12 -8 22 -11 22 -5 0 5 3 18 7
28 6 16 5 17 -12 3 -13 -10 -19 -11 -22 -4 -2 7 -13 10 -23 7 -14 -4 -20 0
-20 11 0 11 -9 16 -31 16 -31 0 -32 -19 -1 -21 11 0 13 -2 4 -6 -7 -3 -21 2
-30 10 -24 20 -90 29 -113 14 -14 -9 -21 -9 -31 1 -6 6 -26 12 -44 12 l-32 0
29 53 c16 28 29 64 29 79 0 50 9 59 49 52 26 -4 32 -3 22 5 -12 8 -13 14 -3
36 7 14 12 41 12 60 0 24 5 35 14 35 25 0 29 21 7 41 -19 18 -20 39 0 64 4 6
4 17 -1 25 -8 13 -10 12 -14 0 -15 -51 -25 -113 -19 -123 4 -7 0 -6 -10 2 -25
20 -30 9 -28 -64 1 -46 -2 -65 -11 -67 -7 0 -18 -2 -24 -2 -6 -1 -30 -18 -53
-38 -40 -34 -42 -38 -27 -53 18 -18 21 -45 6 -45 -19 0 -64 27 -85 50 -11 12
-32 28 -47 36 l-28 14 0 -634 c1 -490 3 -636 13 -640 9 -5 9 -7 0 -12 -10 -4
-13 -164 -13 -750 l0 -744 947 0 c646 1 951 4 960 12 8 6 31 7 60 3 27 -4 362
-9 746 -11 722 -4 723 -4 685 34 -7 7 -9 12 -5 12 3 0 17 -11 31 -25 22 -22
33 -25 100 -25 69 0 74 1 69 20 -3 11 -12 20 -19 20 -8 0 -14 7 -14 15 0 12
-9 14 -42 10 -27 -3 -38 -2 -29 4 7 5 46 8 85 8 47 0 82 5 103 16 18 10 43 17
57 17 14 0 54 7 89 15 67 15 296 27 355 18 20 -3 32 -11 32 -21 0 -13 2 -13
13 3 14 18 37 14 37 -6 0 -6 -5 -7 -12 -3 -7 4 -8 3 -4 -4 4 -6 14 -8 22 -5
13 5 15 1 9 -18 -7 -22 -6 -23 9 -10 15 13 19 13 26 1 5 -8 8 -16 6 -17 -8 -8
-227 -30 -266 -27 -25 1 -99 3 -165 4 -73 0 -115 4 -106 9 11 7 10 11 -5 19
-14 7 -25 6 -39 -4 -10 -8 -27 -14 -38 -14 -10 0 -15 -5 -12 -11 4 -6 1 -10
-6 -8 -29 3 -49 -1 -49 -12 0 -6 8 -8 19 -4 10 3 36 8 56 10 33 5 36 3 25 -10
-11 -13 131 -15 1248 -15 1102 0 1261 2 1266 15 3 8 12 12 21 9 8 -3 15 -1 15
5 0 8 6 7 20 -1 18 -12 19 -13 2 -20 -9 -3 196 -7 456 -7 l472 -1 0 490 0 490
-22 1 c-22 0 -22 1 -3 10 17 8 15 9 -10 5 -16 -2 -48 2 -70 10 l-40 13 73 -2
73 -3 -3 236 -3 235 -60 0 c-33 0 -71 -5 -85 -12 -35 -18 -60 -17 -35 0 17 14
17 15 -2 34 -11 11 -26 22 -32 24 -13 5 -4 39 10 39 5 0 18 -9 29 -20 19 -19
48 -21 140 -6 14 3 28 5 33 5 4 1 7 138 7 306 l0 305 -37 18 c-46 23 -122 37
-105 20 15 -15 15 -28 0 -28 -6 0 -20 -7 -30 -17 -22 -19 -36 -10 -18 12 10
13 9 15 -8 15 -11 0 -25 7 -32 15 -14 17 -55 21 -45 5 8 -13 -21 -60 -36 -60
-6 0 -8 8 -4 19 4 13 0 20 -14 24 -29 7 -112 -13 -118 -29 -7 -19 -33 -18 -33
2 0 9 -8 23 -17 31 -16 12 -15 13 15 8 31 -6 46 8 20 18 -7 3 -4 6 7 6 12 1
26 6 31 11 7 7 23 5 50 -6 21 -9 35 -12 29 -6 -5 5 -42 21 -80 36 l-70 27
-102 -20 c-56 -12 -123 -20 -150 -20 l-48 1 45 10 c25 5 75 19 113 29 l67 20
-17 24 c-23 32 -68 33 -101 3 l-24 -23 16 39 c9 22 14 41 11 44 -2 3 -19 -10
-36 -29 l-32 -34 17 32 c16 33 22 83 9 83 -8 0 -33 -48 -33 -63 0 -12 -37 -58
-47 -59 -21 -1 -51 -18 -56 -30 -3 -7 -6 46 -8 117 l-2 130 -9 -100 c-12 -132
-15 -145 -32 -139 -19 7 -15 -24 5 -36 11 -8 10 -12 -6 -24 -11 -9 -24 -15
-30 -15 -5 0 -4 3 3 6 19 8 14 26 -16 48 -40 30 -222 30 -222 0 0 -16 38 -50
47 -42 4 4 -2 13 -12 21 -17 12 -17 13 6 19 16 4 35 -1 59 -17 80 -52 94 -59
98 -47 2 6 8 8 14 5 6 -4 5 -10 -3 -15 -11 -7 -11 -11 2 -21 9 -7 22 -30 29
-51 25 -79 -14 -89 -80 -22 -36 37 -46 42 -59 32 -12 -10 -14 -9 -9 10 4 17
-3 28 -36 51 -22 17 -52 39 -65 51 -22 19 -36 22 -111 26 -14 0 -51 -5 -84
-12 -72 -17 -92 -12 -46 12 19 9 50 29 69 43 23 17 36 22 39 14 2 -7 13 -12
24 -12 16 0 19 5 15 20 -4 15 2 26 20 37 18 12 23 22 18 40 -4 19 -1 23 17 23
23 1 23 1 3 16 -11 8 -19 22 -17 30 5 25 -33 15 -155 -41 -106 -49 -114 -55
-80 -55 26 0 37 -4 37 -15 0 -26 -30 -29 -55 -5 -19 18 -22 27 -15 46 6 15 6
24 0 24 -6 0 -10 7 -10 16 0 8 5 12 10 9 6 -3 10 1 10 10 0 9 5 13 10 10 6 -4
9 -1 8 6 -2 7 7 18 20 24 12 5 22 13 22 17 0 4 19 22 43 39 l42 32 -34 -7
c-41 -7 -85 -40 -136 -100 l-38 -44 -43 19 c-26 10 -46 14 -49 9 -4 -6 -20
-10 -36 -10 -22 0 -29 -4 -27 -16 5 -29 -17 -25 -35 5 -32 55 -21 79 61 121
43 23 51 37 30 58 -10 10 -10 17 0 32 11 17 10 20 -7 20 -24 0 -36 -32 -22
-59 14 -25 14 -31 0 -31 -14 0 -46 36 -54 61 -3 10 -12 16 -20 13 -15 -6 -35
24 -28 42 6 17 -29 27 -39 12 -20 -33 4 -228 29 -228 13 0 35 -43 30 -58 -1
-4 4 -14 11 -22 32 -38 64 -97 69 -127 7 -43 -8 -42 -44 1 -15 19 -41 39 -56
45 -41 16 -45 13 -17 -10 84 -70 130 -120 130 -143 0 -13 -6 -26 -12 -29 -7
-2 2 -7 19 -11 18 -4 35 -12 38 -17 4 -5 0 -6 -8 -3 -8 3 -18 1 -22 -5 -3 -6
-11 -11 -17 -11 -7 0 -7 5 1 14 9 11 5 15 -23 20 -18 4 -46 18 -62 32 -25 24
-33 26 -82 21 -48 -5 -55 -3 -59 14 -3 10 -10 19 -15 19 -6 0 -8 -9 -5 -20 5
-18 0 -20 -51 -20 -36 0 -52 4 -43 9 8 5 9 11 3 15 -5 3 -26 39 -47 80 -32 65
-59 95 -71 83 -2 -2 3 -26 10 -53 8 -27 16 -66 18 -88 l3 -38 -130 -57 c-71
-32 -150 -67 -174 -79 -51 -25 -55 -26 -46 -12 3 6 1 10 -4 10 -6 0 -11 -8
-11 -18 0 -14 -9 -19 -37 -20 -20 -2 -42 -7 -48 -12 -12 -10 -25 -4 -25 12 0
5 4 7 9 4 5 -3 15 2 22 11 12 15 12 16 -3 10 -31 -11 -19 7 27 42 37 27 45 39
45 66 0 36 -34 60 -62 44 -21 -11 -62 4 -78 28 -9 14 -10 14 -7 2 3 -9 -3 -31
-14 -49 -19 -30 -19 -33 -3 -45 9 -6 14 -17 10 -24 -10 -16 3 -51 20 -51 9 0
14 -11 14 -34 l0 -34 -52 15 c-29 8 -69 18 -88 20 l-35 6 25 -26 c19 -19 31
-24 52 -20 27 5 28 4 22 -25 -5 -27 -3 -32 29 -47 36 -17 57 -47 38 -53 -6 -2
-9 -7 -6 -12 3 -4 -2 -13 -11 -20 -12 -11 -20 -8 -49 20 -20 19 -45 33 -62 34
-15 1 -33 5 -40 9 -12 8 -20 3 -77 -49 -33 -29 -36 -29 -36 -5 0 11 -4 23 -10
26 -6 4 -10 -8 -10 -29 0 -20 5 -36 10 -36 6 0 10 -9 10 -20 0 -24 -12 -25
-62 -3 -43 19 -47 38 -26 116 6 24 9 51 5 60 -8 20 -47 11 -47 -12 0 -9 -7
-29 -15 -45 -19 -36 -19 -57 0 -50 9 4 18 -1 22 -12 4 -10 2 -19 -5 -22 -7 -2
-12 -14 -12 -27 0 -15 -7 -26 -20 -30 -27 -9 -60 3 -60 21 0 8 -7 17 -15 20
-8 4 -15 13 -15 21 0 13 -3 13 -16 2 -14 -12 -15 -5 -9 80 l7 93 -24 -7 c-13
-4 -24 -12 -26 -16 -2 -5 -8 -9 -14 -9 -6 0 -6 6 2 15 14 17 7 45 -12 45 -10
0 -10 -2 1 -9 10 -7 10 -10 1 -16 -20 -12 -30 17 -24 70 3 28 7 94 9 148 2 62
7 103 15 110 10 10 11 4 7 -25 -3 -22 -2 -38 4 -38 16 0 28 -43 17 -63 -12
-23 -1 -37 12 -17 6 9 10 10 10 3 0 -6 -10 -19 -22 -28 -20 -13 -21 -17 -8
-25 13 -8 13 -10 -1 -10 -18 0 -33 -42 -24 -69 3 -9 18 -24 34 -34 l28 -17 7
93 c4 57 3 104 -3 120 -6 15 -7 27 -2 27 16 0 32 122 21 159 -6 22 -6 40 0 52
12 22 -4 69 -23 69 -10 0 -15 -15 -16 -52 -1 -29 -2 -62 -3 -73 -1 -11 2 -49
5 -85 l7 -65 -25 75 c-17 49 -24 87 -20 110 3 19 7 51 10 72 3 20 1 39 -5 43
-5 3 -10 -1 -10 -9 0 -18 -16 -22 -22 -6 -3 9 -23 12 -85 9 -22 0 -39 -24 -23
-34 4 -3 -1 -24 -12 -47 -25 -52 -40 -152 -34 -236 4 -45 1 -74 -10 -94 -10
-19 -11 -28 -3 -28 7 0 9 -12 5 -35 -4 -20 -3 -35 3 -35 5 0 17 -3 27 -7 13
-5 16 -3 11 10 -5 12 -1 17 12 17 24 0 32 -21 17 -42 -11 -15 -23 -17 -103
-19 -18 0 -32 -4 -32 -7 2 -14 -13 -52 -20 -52 -4 0 -8 -6 -9 -12 -8 -61 -7
-63 16 -62 16 0 19 -3 12 -10 -5 -5 -10 -15 -10 -20 0 -15 46 -35 57 -26 4 4
20 0 34 -9 l26 -16 -43 -23 -44 -22 -20 20 c-11 11 -22 20 -25 20 -4 0 -14
-18 -24 -41 -13 -29 -20 -36 -24 -24 -6 13 -10 13 -27 3 -19 -12 -18 -14 15
-48 43 -44 44 -54 3 -45 -29 7 -31 6 -16 -9 9 -9 24 -16 32 -16 27 0 18 -15
-20 -33 -35 -17 -35 -17 -29 3 5 15 2 20 -12 20 -34 0 -63 -12 -63 -26 0 -7
-9 -18 -19 -24 -29 -15 -71 -13 -71 4 0 16 21 26 55 26 33 0 38 26 11 53 -12
12 -27 31 -33 42 -10 16 -14 17 -42 5 -37 -15 -87 0 -78 24 7 18 -27 49 -49
44 -10 -1 -19 -9 -22 -17 -3 -9 2 -11 17 -6 15 4 21 2 21 -8 0 -18 -63 -15
-85 3 -10 8 -17 7 -29 -5 -9 -9 -16 -13 -16 -8 0 5 5 14 12 21 9 9 9 15 1 23
-8 8 -16 1 -28 -25 -20 -43 -30 -45 -57 -11 -11 14 -24 25 -30 25 -7 0 -6 -5
1 -14 8 -10 9 -16 1 -21 -16 -10 -12 -26 8 -23 11 2 18 -4 20 -20 l3 -22 -33
18 c-29 17 -33 23 -33 62 0 39 3 45 25 50 l25 6 -22 8 c-15 5 -23 15 -23 30 0
26 29 36 101 36 22 0 39 5 39 10 0 15 49 -22 50 -38 0 -8 8 -10 24 -6 15 3 34
-1 50 -11 24 -16 26 -16 26 -1 0 9 -6 16 -14 16 -7 0 -19 7 -26 15 -10 13 -9
15 10 15 17 0 20 4 15 18 -12 27 -15 112 -4 112 5 0 13 8 16 17 4 9 15 25 25
35 10 10 18 26 18 35 0 9 9 27 21 39 12 12 19 28 17 35 -2 7 -21 -15 -43 -47
-21 -32 -43 -62 -48 -65 -5 -3 -8 -9 -8 -13 1 -3 0 -9 0 -13 -3 -16 -20 93
-19 122 2 73 -2 290 -5 294 -2 1 -8 0 -13 -3 -6 -3 -6 -24 -1 -51 5 -28 5 -55
-2 -71 -12 -33 -20 -172 -9 -179 9 -6 1 -53 -11 -61 -16 -10 -31 7 -19 21 7 8
7 15 1 19 -5 3 -11 0 -14 -6 -3 -10 -7 -10 -20 1 -15 12 -17 10 -17 -18 0 -31
14 -42 23 -18 3 8 9 6 20 -8 13 -17 13 -21 -1 -31 -9 -7 -22 -9 -30 -7 -7 3
-24 -5 -37 -17 -19 -18 -22 -26 -13 -37 17 -21 3 -26 -29 -10 -41 21 -103 37
-103 26 0 -5 -4 -9 -10 -9 -5 0 -9 3 -8 8 3 11 -22 91 -30 96 -6 4 -7 28 -4
99 1 16 6 25 12 22 6 -3 10 -2 10 3 0 6 -7 12 -15 16 -19 7 -20 32 -1 39 9 4
12 0 9 -11 -5 -22 32 -62 57 -62 24 0 26 -15 4 -24 -10 -4 -22 1 -29 11 -8 10
-17 15 -21 10 -4 -4 -2 -7 4 -7 16 0 15 -27 0 -32 -9 -3 -7 -10 6 -24 18 -18
18 -19 2 -22 -11 -2 -15 -9 -12 -19 3 -8 6 -18 6 -22 0 -12 117 -63 137 -59
29 5 22 33 -10 36 -16 2 -27 8 -25 14 2 6 -12 26 -30 44 -30 30 -32 36 -21 50
12 15 14 13 22 -17 8 -29 10 -31 19 -15 5 10 8 26 5 37 -3 10 -1 17 3 14 5 -3
11 -1 15 5 3 5 -2 10 -12 10 -27 1 -56 27 -50 45 4 8 2 15 -3 15 -5 0 -14 9
-20 20 -9 16 -8 19 6 13 12 -4 15 -3 10 5 -4 7 -13 12 -20 12 -17 0 -26 33
-15 51 6 10 9 7 9 -10 0 -13 3 -22 6 -18 15 15 -7 73 -35 90 -35 21 -42 15
-30 -29 6 -19 8 -38 4 -43 -9 -15 6 -40 21 -34 8 3 14 1 14 -5 0 -5 -7 -13
-16 -16 -17 -7 -55 27 -68 59 -5 14 -9 15 -21 5 -13 -11 -15 -8 -13 13 2 22 6
25 30 20 33 -7 36 5 8 35 -25 27 -25 35 -1 27 15 -5 18 -1 13 20 -2 14 -8 25
-13 25 -15 0 -10 37 6 44 10 3 14 -1 13 -12 -3 -31 14 -82 27 -82 8 0 20 -3
29 -6 14 -5 16 3 16 55 0 57 -10 76 -26 50 -4 -7 -11 -2 -19 13 -7 15 -8 27
-2 36 6 8 6 12 -2 12 -6 0 -16 -10 -21 -22 -6 -16 -9 -18 -9 -6 -1 9 -6 18
-12 20 -7 2 -13 37 -14 88 -4 106 -6 114 -29 120 -24 7 -34 30 -13 30 13 0 12
6 -1 43 -16 44 -10 103 8 92 6 -3 10 -2 10 4 0 5 -19 11 -42 13 -24 2 -43 9
-46 17 -3 10 2 11 18 6 19 -6 22 -4 17 9 -4 9 -2 16 2 16 5 0 12 -8 15 -17 10
-26 28 0 20 31 -4 16 -13 26 -25 26 -10 0 -19 4 -19 10 0 5 7 7 15 4 21 -8 19
16 -2 33 -17 13 -16 14 5 8 25 -7 31 12 10 33 -10 10 -10 15 2 22 13 9 13 11
1 19 -8 5 -12 18 -8 30 3 12 1 19 -4 15 -5 -3 -9 4 -9 15 0 12 -9 26 -20 33
-24 15 -26 28 -5 28 8 0 15 -5 15 -12 0 -6 3 -8 7 -4 5 4 -1 14 -11 22 -11 8
-15 14 -8 14 15 0 3 32 -25 64 -22 25 -19 36 5 16 6 -6 10 -7 7 -4 -3 4 0 13
6 20 8 9 5 11 -9 7 -14 -3 -22 1 -27 17 -4 13 -12 19 -21 16 -8 -3 -14 -1 -14
4 0 6 9 10 20 10 11 0 20 -5 20 -12 0 -9 3 -9 11 -1 14 14 -10 43 -34 43 -8 0
-17 6 -20 14 -6 15 -53 27 -74 19 -7 -3 -13 -11 -13 -19 0 -8 -4 -14 -10 -14
-5 0 -9 3 -7 8 1 4 -8 17 -21 30 l-23 23 6 -23z m50 -68 c3 -5 -1 -10 -10 -10
-9 0 -13 5 -10 10 3 6 8 10 10 10 2 0 7 -4 10 -10z m115 -75 c35 -18 41 -40 8
-29 -24 7 -68 34 -68 40 0 9 33 3 60 -11z m16 -108 c23 9 16 -13 -10 -31 -29
-19 -37 -11 -24 24 6 14 12 20 15 13 2 -7 11 -9 19 -6z m34 -37 c0 -5 -2 -10
-4 -10 -3 0 -8 5 -11 10 -3 6 -1 10 4 10 6 0 11 -4 11 -10z m27 -117 c3 -7 -4
-9 -16 -6 -12 3 -18 9 -15 15 7 11 26 6 31 -9z m-47 -83 c0 -5 -4 -10 -10 -10
-5 0 -10 5 -10 10 0 6 5 10 10 10 6 0 10 -4 10 -10z m67 -26 c-3 -3 -12 -4
-19 -1 -8 3 -5 6 6 6 11 1 17 -2 13 -5z m-42 -104 c-3 -5 -10 -10 -16 -10 -5
0 -9 5 -9 10 0 6 7 10 16 10 8 0 12 -4 9 -10z m27 -75 c11 4 13 -2 10 -30 -2
-19 -8 -32 -14 -29 -5 3 -7 13 -4 21 4 8 2 11 -5 7 -12 -7 -29 13 -29 35 0 10
3 11 14 2 7 -6 20 -9 28 -6z m-2532 -225 c0 -5 -4 -10 -10 -10 -5 0 -10 5 -10
10 0 6 5 10 10 10 6 0 10 -4 10 -10z m2366 -62 c-9 -5 -16 -17 -16 -26 -1 -15
-2 -14 -12 2 -8 15 -8 21 0 24 7 2 12 11 12 19 0 13 3 13 16 2 14 -11 14 -13
0 -21z m-2583 -42 c3 -7 -3 -28 -14 -45 -10 -17 -19 -39 -20 -49 0 -12 -3 -10
-10 7 -12 31 -6 87 10 84 6 -2 11 2 11 7 0 15 17 12 23 -4z m5732 -66 c3 -5
-1 -10 -9 -10 -9 0 -16 5 -16 10 0 6 4 10 9 10 6 0 13 -4 16 -10z m-325 -40
c0 -5 -4 -10 -10 -10 -5 0 -10 5 -10 10 0 6 5 10 10 10 6 0 10 -4 10 -10z
m-5475 -60 c-9 -41 -17 -33 -9 9 4 17 9 30 11 27 3 -2 2 -19 -2 -36z m2690 20
c-3 -5 -11 -10 -16 -10 -6 0 -7 5 -4 10 3 6 11 10 16 10 6 0 7 -4 4 -10z
m2855 6 c0 -1 -5 -18 -12 -37 l-12 -34 -8 30 c-5 20 -3 32 5 37 13 8 27 10 27
4z m54 -54 c-8 -7 -14 -22 -14 -32 0 -10 -4 -22 -10 -25 -5 -3 -10 -11 -10
-16 0 -6 5 -7 10 -4 6 3 10 1 10 -6 0 -7 -8 -9 -21 -6 -20 5 -20 5 -4 -13 16
-18 16 -18 -3 -13 -31 8 -36 47 -12 93 11 22 24 39 28 39 19 -3 26 2 13 10 -8
5 -10 14 -6 21 6 9 11 6 20 -11 10 -18 10 -25 -1 -37z m-5544 13 c0 -19 -4
-35 -10 -35 -5 0 -10 16 -10 35 0 19 5 35 10 35 6 0 10 -16 10 -35z m2560 3
c0 -16 -3 -19 -11 -11 -6 6 -8 16 -5 22 11 17 16 13 16 -11z m3840 -18 c0 -5
-8 -10 -17 -10 -15 0 -16 2 -3 10 19 12 20 12 20 0z m-812 -50 c7 -11 10 -20
6 -20 -7 0 -34 27 -34 34 0 13 16 5 28 -14z m235 13 c-7 -2 -19 -2 -25 0 -7 3
-2 5 12 5 14 0 19 -2 13 -5z m-1999 -34 c-3 -5 -10 -7 -15 -3 -5 3 -7 10 -3
15 3 5 10 7 15 3 5 -3 7 -10 3 -15z m-1644 -34 c0 -11 -12 -15 -47 -15 -51 0
-50 15 2 23 17 2 33 5 38 6 4 0 7 -6 7 -14z m4296 -2 c17 -23 17 -43 0 -62
-13 -14 -10 -16 28 -18 48 -2 156 -30 171 -45 7 -7 1 -8 -17 -4 -24 5 -28 3
-28 -14 0 -26 1 -26 -59 11 -27 17 -65 32 -83 33 -22 1 -34 7 -36 19 -2 9 -8
15 -13 12 -12 -8 -11 12 3 52 14 38 16 39 34 16z m-3976 -13 c0 -5 -5 -10 -11
-10 -5 0 -7 5 -4 10 3 6 8 10 11 10 2 0 4 -4 4 -10z m4099 -21 c-16 -12 -25
-14 -28 -7 -5 14 29 39 42 31 5 -3 -1 -14 -14 -24z m-3989 11 c0 -5 -4 -10
-10 -10 -5 0 -10 5 -10 10 0 6 5 10 10 10 6 0 10 -4 10 -10z m-420 -13 c0 -7
-11 -28 -25 -47 l-25 -34 0 31 c0 18 6 35 12 39 9 6 5 10 -12 15 -21 6 -19 7
13 8 24 1 37 -3 37 -12z m3190 -2 c0 -3 -5 -14 -12 -24 -18 -30 -3 -50 44 -58
l43 -7 -45 -8 c-89 -17 -150 -20 -150 -9 0 6 8 11 18 12 14 0 14 2 -3 8 -18 7
-17 9 11 24 17 9 35 13 39 9 5 -4 5 -1 1 6 -6 10 -14 9 -39 -6 -18 -11 -31
-23 -30 -28 1 -5 -21 -20 -48 -34 -37 -18 -49 -29 -47 -44 2 -14 -6 -22 -27
-29 -48 -16 -109 -62 -139 -106 -16 -23 -33 -41 -37 -41 -14 0 -10 28 4 37 8
4 30 30 50 56 21 27 37 46 37 43 0 -4 28 14 63 38 34 25 61 49 60 53 -1 5 4
27 12 49 12 32 14 35 15 14 0 -15 -5 -31 -12 -38 -22 -22 28 -14 54 9 23 20
116 76 131 78 4 1 7 -1 7 -4z m-5282 -16 c-2 -6 -8 -10 -13 -10 -5 0 -11 4
-13 10 -2 6 4 11 13 11 9 0 15 -5 13 -11z m435 -2 c3 -8 -5 -14 -21 -15 -25
-2 -25 -2 -6 13 23 18 21 17 27 2z m2054 -17 c-3 -11 -1 -20 5 -20 6 0 8 -9 5
-20 -3 -10 0 -21 7 -23 6 -2 8 -8 4 -11 -3 -4 -15 1 -26 12 -13 13 -18 28 -14
50 2 18 9 32 14 32 6 0 8 -9 5 -20z m1204 -33 c-8 -8 -11 -4 -11 14 0 33 14
47 18 19 2 -12 -1 -27 -7 -33z m-1529 18 c4 -17 1 -25 -9 -25 -8 0 -12 4 -8 9
3 5 1 12 -5 16 -15 9 -12 25 4 25 7 0 16 -11 18 -25z m202 -1 c3 -9 6 -28 6
-44 0 -24 -5 -28 -32 -33 -18 -2 -40 0 -48 6 -11 8 -11 7 1 -7 9 -9 30 -18 47
-18 36 -1 45 -27 12 -35 -23 -6 -27 -23 -5 -23 8 0 15 -4 15 -10 0 -17 -56
-73 -67 -67 -15 10 -3 59 13 53 9 -4 13 4 11 25 -1 20 -6 28 -15 24 -8 -3 -19
1 -26 8 -17 17 -17 77 1 77 11 0 11 4 1 20 -16 25 -4 36 26 22 19 -9 25 -8 30
4 7 19 22 18 30 -2z m-1929 -4 c-3 -5 1 -20 9 -32 10 -16 12 -28 6 -38 -7 -12
-11 -7 -16 18 -4 19 -13 36 -20 39 -17 6 -8 23 12 23 8 0 12 -4 9 -10z m62 -7
c-2 -2 -14 -5 -25 -8 -14 -2 -19 1 -16 10 3 7 14 11 25 8 11 -3 18 -7 16 -10z
m5493 10 c0 -15 -15 -29 -63 -61 -54 -36 -57 -37 -57 -19 0 17 35 49 75 70 34
18 45 20 45 10z m-5747 -28 c-7 -21 -13 -19 -13 6 0 11 4 18 10 14 5 -3 7 -12
3 -20z m1875 12 c19 -23 0 -37 -28 -21 l-25 15 25 -7 c22 -6 23 -5 11 10 -7 9
-9 16 -3 16 5 0 14 -6 20 -13z m4212 -3 c0 -2 -9 -4 -20 -4 -11 0 -20 4 -20 9
0 5 9 7 20 4 11 -3 20 -7 20 -9z m-4348 -16 c-7 -7 -12 -8 -12 -2 0 6 3 14 7
17 3 4 9 5 12 2 2 -3 -1 -11 -7 -17z m2951 9 c3 -8 1 -20 -4 -28 -5 -8 -9 -10
-9 -6 0 4 -9 3 -19 -3 -14 -7 -21 -6 -25 3 -3 8 -9 7 -20 -6 -10 -13 -21 -17
-35 -12 -16 5 -20 3 -15 -9 4 -10 1 -16 -9 -16 -18 0 -30 -27 -20 -43 4 -7 8
-19 8 -27 0 -9 9 -15 23 -14 15 0 22 -5 22 -18 0 -17 -2 -17 -37 -2 -45 19
-59 22 -96 23 -16 1 -26 5 -22 11 10 16 -7 12 -43 -10 -31 -19 -33 -19 -40 -3
-7 19 -52 30 -52 13 0 -16 -27 -12 -34 5 -3 10 1 15 14 15 10 0 21 4 24 9 3 5
38 19 78 32 43 14 90 37 113 57 31 26 41 30 43 18 4 -19 23 -21 39 -5 6 6 29
12 51 12 22 1 38 5 35 10 -2 4 2 7 10 7 8 0 17 -6 20 -13z m-2508 -7 c-3 -5
-11 -10 -16 -10 -6 0 -7 5 -4 10 3 6 11 10 16 10 6 0 7 -4 4 -10z m2632 -12
c-3 -8 -6 -5 -6 6 -1 11 2 17 5 13 3 -3 4 -12 1 -19z m1345 0 c2 -19 12 -25
56 -32 28 -5 52 -12 52 -15 0 -8 -107 2 -112 9 -12 19 -28 51 -28 55 0 3 6 5
14 5 8 0 16 -10 18 -22z m-3512 -14 c0 -8 -4 -12 -10 -9 -5 3 -10 13 -10 21 0
8 5 12 10 9 6 -3 10 -13 10 -21z m2829 5 c44 -27 36 -32 -24 -14 -90 27 -197
13 -264 -34 -24 -17 -29 -19 -25 -6 7 16 68 52 114 66 14 4 57 8 95 8 54 1 78
-4 104 -20z m941 7 c0 -8 19 -31 42 -50 42 -37 40 -51 -3 -17 -13 10 -41 26
-62 36 -38 18 -38 18 -15 30 31 17 38 18 38 1z m-6113 -13 c11 -24 10 -44 -5
-68 -11 -20 -17 -10 -13 22 1 6 -3 14 -9 18 -5 3 -10 0 -10 -7 -1 -7 -7 -2
-14 12 -8 14 -12 28 -10 32 9 15 53 8 61 -9z m280 -5 c-1 -17 3 -22 15 -20 9
1 19 -2 23 -8 4 -6 3 -9 -2 -8 -18 5 -93 -13 -93 -22 0 -6 -4 -10 -10 -10 -5
0 -10 11 -10 25 0 17 4 23 14 19 8 -3 25 6 37 20 30 31 29 31 26 4z m5166 -20
c-7 -41 -8 -42 -28 -35 -20 8 -19 44 3 56 28 17 32 13 25 -21z m-5072 -5 c-8
-15 -10 -15 -11 -2 0 17 10 32 18 25 2 -3 -1 -13 -7 -23z m929 17 c0 -5 -4
-10 -10 -10 -5 0 -10 5 -10 10 0 6 5 10 10 10 6 0 10 -4 10 -10z m3300 6 c0
-3 -4 -8 -10 -11 -5 -3 -10 -1 -10 4 0 6 5 11 10 11 6 0 10 -2 10 -4z m-3180
-46 c5 0 10 -7 10 -15 0 -19 -21 -15 -38 8 -7 9 -21 17 -30 17 -12 0 -9 4 8
13 22 11 26 11 32 -5 4 -10 12 -18 18 -18z m1790 20 c0 -5 -7 -10 -15 -10 -8
0 -15 -4 -15 -10 0 -5 -5 -10 -10 -10 -6 0 -5 8 2 20 13 21 38 27 38 10z
m1177 -27 c-3 -10 -5 -4 -5 12 0 17 2 24 5 18 2 -7 2 -21 0 -30z m-3079 16
c-2 -6 -8 -10 -13 -10 -5 0 -11 4 -13 10 -2 6 4 11 13 11 9 0 15 -5 13 -11z
m632 1 c0 -5 -4 -10 -10 -10 -5 0 -10 5 -10 10 0 6 5 10 10 10 6 0 10 -4 10
-10z m2015 -10 c-10 -11 -22 -20 -26 -20 -5 0 -1 9 8 20 10 11 22 20 27 20 5
0 1 -9 -9 -20z m808 13 c-7 -2 -19 -2 -25 0 -7 3 -2 5 12 5 14 0 19 -2 13 -5z
m-4886 -65 c-3 -8 -6 -5 -6 6 -1 11 2 17 5 13 3 -3 4 -12 1 -19z m3373 12 c0
-5 -3 -10 -7 -10 -5 0 -9 -11 -9 -25 -1 -14 2 -25 7 -25 15 0 10 -28 -7 -34
-26 -10 -32 1 -23 46 4 24 8 46 9 51 0 11 30 8 30 -3z m1404 4 c12 -5 13 -9 3
-19 -9 -9 -14 -10 -19 -1 -6 8 -10 8 -15 0 -11 -16 -53 -36 -53 -26 0 6 9 12
20 15 13 3 18 10 14 21 -6 17 19 22 50 10z m706 -24 c-43 -26 -99 -77 -100
-89 0 -10 -16 -12 -69 -9 -39 2 -73 7 -77 11 -16 16 59 67 98 67 13 0 51 11
83 24 37 14 64 20 70 14 6 -6 5 -12 -5 -18z m430 20 c24 -15 7 -19 -25 -5 -23
10 -25 14 -10 14 11 0 27 -3 35 -9z m-5583 -35 c-10 -21 -27 -34 -27 -21 0 18
22 56 29 52 5 -4 4 -17 -2 -31z m1242 -30 c17 -33 29 -61 27 -62 -6 -7 -53 73
-60 102 -10 40 -3 31 33 -40z m35 24 c-8 -14 -34 -11 -34 4 0 8 3 17 7 20 9 9
34 -13 27 -24z m808 -4 c2 -14 12 -21 36 -23 26 -3 32 0 32 17 0 25 19 38 30
20 11 -16 -28 -59 -47 -52 -7 3 -13 -2 -13 -11 0 -17 -9 -20 -25 -8 -14 9 -35
58 -35 79 0 22 17 5 22 -22z m-2577 15 c3 -5 1 -10 -4 -10 -6 0 -11 5 -11 10
0 6 2 10 4 10 3 0 8 -4 11 -10z m2120 -53 l0 -52 45 -3 c73 -4 75 -4 85 -2 19
4 55 -12 55 -25 0 -7 3 -33 6 -59 8 -56 4 -56 -80 -17 -33 16 -71 32 -84 36
-12 3 -34 17 -49 31 -14 13 -34 24 -44 24 -11 0 -19 7 -19 15 0 10 11 15 35
15 38 0 47 18 20 40 -8 7 -15 16 -15 21 0 5 7 9 15 9 8 0 14 3 14 8 -3 16 1
25 8 18 4 -4 7 -30 8 -59z m-2415 26 c23 6 27 -14 6 -32 -18 -15 -66 6 -66 29
0 26 13 33 27 14 7 -10 20 -15 33 -11z m650 17 c0 -5 -7 -10 -16 -10 -8 0 -12
5 -9 10 3 6 10 10 16 10 5 0 9 -4 9 -10z m403 -41 c3 -11 -1 -35 -8 -53 -11
-25 -20 -33 -39 -33 -17 0 -23 4 -19 13 3 8 9 11 14 8 5 -3 9 4 9 15 0 12 5
21 11 21 7 0 9 10 7 25 -6 31 17 35 25 4z m917 11 c0 -5 -2 -10 -4 -10 -3 0
-8 5 -11 10 -3 6 -1 10 4 10 6 0 11 -4 11 -10z m1075 0 c3 -5 1 -10 -4 -10 -6
0 -11 5 -11 10 0 6 2 10 4 10 3 0 8 -4 11 -10z m-2635 -10 c0 -13 -11 -13 -30
0 -12 8 -11 10 8 10 12 0 22 -4 22 -10z m1960 -21 c0 -6 -4 -7 -10 -4 -5 3
-10 11 -10 16 0 6 5 7 10 4 6 -3 10 -11 10 -16z m2480 5 c0 -2 -7 -4 -15 -4
-8 0 -15 4 -15 10 0 5 7 7 15 4 8 -4 15 -8 15 -10z m535 6 c-3 -5 -16 -10 -28
-9 -21 0 -21 1 -2 9 28 12 37 12 30 0z m-5465 -10 c0 -5 -4 -10 -9 -10 -6 0
-13 5 -16 10 -3 6 1 10 9 10 9 0 16 -4 16 -10z m783 -21 c4 1 7 -1 7 -4 0 -3
0 -9 0 -15 0 -5 -3 -10 -7 -10 -11 0 -32 48 -25 55 4 3 9 -1 12 -10 3 -9 9
-16 13 -16z m5772 21 c3 -5 -1 -10 -10 -10 -9 0 -13 5 -10 10 3 6 8 10 10 10
2 0 7 -4 10 -10z m-6025 -9 c0 -6 -4 -13 -10 -16 -5 -3 -10 1 -10 9 0 9 5 16
10 16 6 0 10 -4 10 -9z m4566 -6 c-23 -17 -36 -19 -36 -6 0 11 18 19 40 20 11
0 10 -3 -4 -14z m-2116 -67 c0 -10 -4 -18 -10 -18 -5 0 -10 6 -10 14 0 7 -2
29 -5 47 l-5 34 14 -30 c9 -16 15 -38 16 -47z m1360 62 c0 -5 -4 -10 -10 -10
-5 0 -10 5 -10 10 0 6 5 10 10 10 6 0 10 -4 10 -10z m2546 -6 c85 -6 94 -9 80
-22 -11 -11 -34 -15 -88 -13 -40 1 -75 6 -78 11 -3 5 -21 16 -40 25 l-35 16
33 -5 c18 -3 76 -9 128 -12z m-6893 0 c9 -9 -4 -35 -14 -28 -5 3 -9 12 -9 20
0 14 12 19 23 8z m1193 -21 c-10 -10 -19 5 -10 18 6 11 8 11 12 0 2 -7 1 -15
-2 -18z m2659 7 c-28 -12 -37 -12 -30 0 3 6 16 10 28 9 21 0 21 -1 2 -9z
m-3405 -9 c0 -5 -7 -11 -15 -15 -8 -3 -15 -1 -15 4 0 5 -8 11 -17 13 -10 3 -3
5 15 6 17 0 32 -3 32 -8z m580 5 c0 -2 -7 -6 -15 -10 -8 -3 -15 -1 -15 4 0 6
7 10 15 10 8 0 15 -2 15 -4z m1200 -59 c13 4 13 3 1 -6 -13 -8 -11 -13 9 -29
13 -11 30 -17 37 -15 7 3 13 -2 13 -11 0 -23 24 -30 50 -16 18 9 25 8 40 -5
17 -15 17 -19 4 -32 -13 -14 -13 -17 2 -34 9 -10 13 -23 8 -30 -5 -9 -11 -7
-21 6 -7 11 -13 14 -13 6 0 -15 -109 -8 -171 11 -33 9 -37 14 -36 44 1 35 13
45 23 19 8 -20 24 -19 40 3 11 14 15 14 23 3 6 -10 10 -10 16 -1 4 7 -7 27
-27 48 -19 21 -45 53 -58 72 l-23 35 34 -36 c19 -20 41 -34 49 -32z m1727 57
c-3 -3 -12 -4 -19 -1 -8 3 -5 6 6 6 11 1 17 -2 13 -5z m-3667 -27 c17 -4 15
-5 -9 -4 -21 1 -36 8 -39 17 -4 12 -2 13 9 3 8 -6 25 -13 39 -16z m2460 8 c0
-8 -4 -15 -10 -15 -5 0 -10 7 -10 15 0 8 5 15 10 15 6 0 10 -7 10 -15z m1720
5 c-12 -8 -11 -10 8 -10 25 0 29 -12 8 -29 -27 -22 -73 18 -49 42 3 4 16 7 27
7 17 0 18 -2 6 -10z m230 -5 c0 -8 -4 -15 -10 -15 -5 0 -10 7 -10 15 0 8 5 15
10 15 6 0 10 -7 10 -15z m66 0 c10 -25 -7 -40 -23 -20 -7 11 -13 22 -13 27 0
14 30 9 36 -7z m134 11 c0 -11 -19 -15 -25 -6 -3 5 1 10 9 10 9 0 16 -2 16 -4z
m220 -6 c0 -8 -25 -15 -80 -23 -8 -2 -21 -6 -28 -11 -7 -4 -16 -6 -19 -2 -7 6
17 31 37 39 25 9 90 8 90 -3z m1370 -6 c0 -8 -4 -12 -10 -9 -5 3 -10 10 -10
16 0 5 5 9 10 9 6 0 10 -7 10 -16z m-5290 -6 c-1 -7 -7 -26 -15 -43 l-13 -30
-1 43 c-1 31 3 42 14 42 8 0 15 -6 15 -12z m3093 -16 c-8 -22 -23 -42 -33 -42
-10 0 -1 40 13 57 13 17 28 6 20 -15z m2807 24 c0 -11 -19 -15 -25 -6 -3 5 1
10 9 10 9 0 16 -2 16 -4z m-6636 -38 c-8 -12 -37 -9 -56 6 -28 21 -21 24 21
13 22 -6 38 -14 35 -19z m4381 22 c-3 -5 -13 -10 -21 -10 -8 0 -12 5 -9 10 3
6 13 10 21 10 8 0 12 -4 9 -10z m-3775 -11 c0 -8 4 -8 13 -1 16 13 42 -1 33
-17 -4 -6 -14 -10 -21 -9 -8 2 -13 -1 -12 -7 1 -5 7 -9 14 -7 7 2 16 -4 19
-13 3 -8 12 -15 20 -15 8 0 14 -4 14 -10 0 -5 -8 -10 -17 -10 -9 0 -24 -7 -34
-16 -16 -14 -22 -14 -48 -3 -17 8 -31 20 -31 26 0 7 -11 13 -25 13 -14 0 -25
-5 -25 -12 0 -8 -3 -9 -10 -2 -14 14 -1 51 21 57 10 3 19 2 19 -3 0 -4 9 -10
20 -13 17 -4 18 -2 10 13 -8 15 -6 21 7 29 24 14 33 14 33 0z m4285 -9 c-3 -5
12 -14 35 -20 54 -15 67 -40 35 -69 -29 -24 -36 -26 -32 -8 1 7 -9 12 -28 12
-35 0 -67 20 -84 54 -15 27 -7 38 34 43 35 4 48 0 40 -12z m75 16 c0 -2 -7 -7
-16 -10 -8 -3 -12 -2 -9 4 6 10 25 14 25 6z m-5444 -33 c-7 -7 -26 7 -26 19 0
6 6 6 15 -2 9 -7 13 -15 11 -17z m64 -10 c0 -22 -2 -24 -15 -13 -8 7 -15 21
-15 31 0 12 5 16 15 13 8 -4 15 -17 15 -31z m4680 5 c0 -34 -13 -29 -25 10 -5
16 -2 22 9 22 11 0 16 -10 16 -32z m-120 2 c42 -14 59 -16 75 -8 18 10 19 10
6 -6 -12 -14 -12 -22 -3 -37 18 -29 -2 -24 -60 16 -28 19 -62 38 -77 41 -42 9
-47 12 -21 13 14 0 50 -8 80 -19z m-185 0 c-3 -5 -11 -10 -16 -10 -6 0 -7 5
-4 10 3 6 11 10 16 10 6 0 7 -4 4 -10z m835 2 c-1 -17 -18 -31 -52 -40 -33 -9
-37 -8 -42 11 -3 11 -3 23 -1 27 5 9 95 10 95 2z m1360 -12 c14 -11 21 -20 17
-20 -11 0 -67 29 -67 35 0 11 27 3 50 -15z m-4253 4 c-3 -3 -12 -4 -19 -1 -8
3 -5 6 6 6 11 1 17 -2 13 -5z m1671 -5 c-2 -6 -8 -10 -13 -10 -5 0 -11 4 -13
10 -2 6 4 11 13 11 9 0 15 -5 13 -11z m1472 7 c0 -2 -7 -6 -15 -10 -8 -3 -15
-1 -15 4 0 6 7 10 15 10 8 0 15 -2 15 -4z m-969 -21 l34 -15 -34 2 c-19 2 -36
9 -39 16 -5 15 -1 15 39 -3z m-4076 -5 c3 -6 -1 -7 -9 -4 -18 7 -21 14 -7 14
6 0 13 -4 16 -10z m4655 -11 c0 -12 -16 -39 -35 -60 -22 -25 -35 -49 -35 -67
0 -15 -2 -36 -4 -47 -2 -11 -1 -14 1 -7 3 7 9 10 14 7 5 -4 9 -2 9 3 0 5 14 7
30 4 24 -3 30 -9 30 -28 0 -24 -45 -63 -58 -50 -3 4 0 11 8 16 8 5 11 12 7 17
-5 4 -11 3 -15 -3 -4 -6 -17 -14 -29 -18 -20 -7 -23 -4 -23 23 0 29 -2 30 -20
19 -21 -13 -27 -38 -10 -38 17 0 11 -26 -10 -45 -11 -10 -20 -24 -20 -30 0
-14 -27 -39 -44 -41 -6 0 -20 -2 -32 -2 -12 -1 -26 -13 -33 -29 l-13 -28 -27
34 -27 33 -52 -18 c-29 -10 -51 -24 -49 -31 2 -13 1 -13 -40 -13 l-28 1 25 14
c20 11 21 14 7 15 -17 0 -79 -37 -85 -52 -2 -5 -10 -8 -18 -8 -17 0 -19 -17
-1 -23 11 -5 -23 -9 -99 -12 -36 -1 -64 -20 -64 -43 0 -13 -2 -13 -18 1 -10
10 -25 17 -33 17 -8 1 3 10 23 21 25 13 35 24 32 34 -5 11 1 15 22 16 28 0 28
1 7 11 -13 6 -23 16 -23 21 0 6 -14 -4 -31 -21 -17 -18 -38 -32 -45 -32 -8 0
-14 -4 -14 -10 0 -5 -7 -10 -15 -10 -8 0 -15 8 -15 18 0 14 -2 15 -10 2 -7
-11 -10 -8 -10 16 0 31 0 31 -45 27 -33 -4 -45 -2 -45 9 0 23 14 35 48 43 35
7 40 16 17 35 -10 8 -28 10 -53 6 -81 -15 -87 -14 -84 18 4 34 32 69 32 40 0
-14 3 -14 15 -4 13 11 20 9 40 -10 14 -13 28 -21 31 -17 9 9 -14 35 -37 42
-11 4 -19 15 -19 27 0 20 1 20 18 5 10 -10 25 -17 32 -17 18 0 50 -30 50 -47
0 -7 5 -13 11 -13 8 0 7 -6 -2 -17 -13 -15 -7 -16 79 -10 50 4 92 4 92 2 0 -3
-7 -16 -16 -29 -15 -24 -15 -24 23 -22 21 2 46 3 56 4 10 1 31 16 46 33 41 45
131 61 131 23 0 -21 15 -17 49 12 40 33 39 42 -2 39 -20 -2 -43 4 -57 15 l-25
19 40 35 c22 19 50 35 63 36 27 0 28 15 2 37 -11 10 -20 22 -20 27 0 5 13 -3
29 -18 16 -16 34 -25 40 -22 7 5 8 1 4 -11 -6 -16 -5 -16 11 -4 15 12 19 12
32 -8 9 -12 19 -19 23 -17 4 3 44 6 89 7 72 3 82 5 82 21 0 24 24 70 44 87 26
21 19 26 -29 23 -30 -3 -45 0 -45 8 0 8 9 10 23 6 14 -3 32 1 43 9 29 22 54
19 54 -6z m-940 -4 c0 -8 -4 -15 -10 -15 -5 0 -10 7 -10 15 0 8 5 15 10 15 6
0 10 -7 10 -15z m-2990 -16 c0 -24 -23 -21 -28 4 -2 10 3 17 12 17 10 0 16 -9
16 -21z m3105 11 c3 -5 3 -15 -1 -21 -6 -11 -23 6 -24 24 0 10 18 9 25 -3z
m-3645 -20 c0 -11 -4 -20 -10 -20 -5 0 -10 9 -10 20 0 11 5 20 10 20 6 0 10
-9 10 -20z m3455 9 c11 -16 1 -19 -13 -3 -7 8 -8 14 -3 14 5 0 13 -5 16 -11z
m-3365 -40 c0 -20 -4 -29 -12 -27 -15 5 -22 33 -14 54 9 24 26 6 26 -27z
m1310 5 c-18 -21 -24 -10 -9 18 8 14 14 18 17 10 2 -7 -2 -19 -8 -28z m4110
26 c0 -5 15 -10 34 -10 19 0 41 -3 50 -6 18 -7 21 -39 5 -50 -7 -4 -9 -23 -5
-51 7 -54 -16 -71 -46 -34 -19 25 -48 22 -48 -4 0 -17 -17 -20 -22 -4 -2 6
-16 12 -32 12 -21 0 -26 3 -20 16 3 9 10 31 14 50 5 19 14 37 20 41 6 4 8 14
5 22 -4 11 0 18 12 21 30 8 33 7 33 -3z m519 -22 c36 -1 77 2 90 6 23 8 24 6
18 -23 -4 -19 -2 -31 4 -31 6 0 9 -9 6 -20 -3 -11 -1 -23 4 -26 14 -8 0 -24
-22 -24 -10 0 -19 -4 -19 -10 0 -5 14 -10 31 -10 16 0 28 4 24 9 -3 5 -1 12 4
15 15 10 24 -13 11 -28 -7 -9 -26 -13 -53 -11 -23 2 -52 4 -64 4 -20 1 -21 4
-13 27 6 14 10 27 10 29 0 2 -17 2 -37 0 -37 -5 -37 -4 -10 7 34 15 31 28 -13
50 -30 15 -37 16 -69 2 -41 -17 -57 -37 -35 -44 11 -4 6 -13 -22 -35 -32 -26
-34 -30 -18 -36 30 -12 34 -10 44 16 5 14 17 25 26 25 8 0 14 -3 12 -7 -24
-50 -34 -62 -53 -65 -25 -5 -46 7 -62 36 -9 16 -2 28 43 74 51 53 53 56 34 69
-32 23 -13 35 27 18 20 -8 66 -16 102 -17z m-5991 10 c7 -7 12 -19 12 -27 0
-11 -4 -10 -20 4 -21 19 -26 35 -12 35 4 0 13 -5 20 -12z m2982 2 c0 -12 -8
-12 -35 0 -18 8 -17 9 8 9 15 1 27 -3 27 -9z m3170 -18 c0 -13 2 -14 9 -3 6
10 10 10 16 1 4 -6 2 -17 -4 -23 -6 -6 -11 -24 -11 -39 0 -45 -17 -32 -24 18
-8 64 -8 76 4 69 6 -3 10 -14 10 -23z m-4706 9 c7 -10 -22 -37 -30 -28 -9 8 3
37 15 37 5 0 12 -4 15 -9z m744 -22 c-3 -8 -7 -3 -11 10 -4 17 -3 21 5 13 5
-5 8 -16 6 -23z m492 16 c12 -15 6 -35 -11 -35 -6 0 -8 4 -4 9 3 5 1 12 -5 16
-12 8 -13 25 -1 25 5 0 14 -7 21 -15z m695 -5 c-27 -12 -35 -12 -35 0 0 6 12
10 28 9 24 0 25 -1 7 -9z m2465 1 c0 -13 -28 -22 -35 -11 -3 4 1 11 7 13 20 8
28 8 28 -2z m-6560 -29 c1 -15 2 -15 15 2 16 20 53 17 78 -8 7 -8 25 -16 38
-18 13 -1 25 -11 27 -21 3 -14 -3 -17 -25 -16 -15 1 -35 -1 -44 -5 -11 -5 -24
0 -37 14 -18 19 -21 20 -36 5 -15 -15 -16 -15 -16 5 0 16 -4 20 -15 16 -11 -4
-15 1 -15 18 0 38 30 46 30 8z m4175 -3 c-10 -15 -25 -10 -19 6 4 8 10 12 15
9 5 -3 7 -10 4 -15z m81 13 c6 -4 14 -18 17 -32 7 -28 -25 -70 -54 -70 -18 0
-35 33 -25 49 4 5 0 11 -6 14 -7 2 -10 8 -6 12 4 4 15 5 24 1 12 -5 13 -10 6
-19 -13 -15 1 -42 17 -33 6 4 11 12 11 17 0 6 -6 7 -12 3 -10 -6 -10 -4 0 8 9
11 10 18 2 23 -5 3 -10 13 -10 21 0 15 18 18 36 6z m1715 -74 c-8 -21 -15 -25
-35 -21 -40 8 -40 19 1 62 l38 39 3 -27 c2 -15 -1 -39 -7 -53z m-4756 62 c7
-11 -42 -26 -53 -16 -7 8 17 26 35 26 6 0 15 -4 18 -10z m1648 -5 c-3 -9 -8
-14 -10 -11 -3 3 -2 9 2 15 9 16 15 13 8 -4z m-2333 -5 c0 -5 -5 -10 -11 -10
-5 0 -7 5 -4 10 3 6 8 10 11 10 2 0 4 -4 4 -10z m2357 -12 c-3 -8 -6 -5 -6 6
-1 11 2 17 5 13 3 -3 4 -12 1 -19z m1003 18 c0 -2 -7 -9 -15 -16 -12 -10 -15
-10 -15 4 0 9 7 16 15 16 8 0 15 -2 15 -4z m2605 -16 c4 -11 0 -29 -9 -42 -9
-12 -16 -20 -17 -18 0 3 -1 22 -2 43 -2 40 17 52 28 17z m-5165 -3 c0 -7 -9
-13 -20 -14 -25 -2 -27 14 -2 20 9 3 18 5 20 6 1 0 2 -5 2 -12z m1210 9 c0 -3
-4 -8 -10 -11 -5 -3 -10 -1 -10 4 0 6 5 11 10 11 6 0 10 -2 10 -4z m1290 -6
c0 -5 -4 -10 -10 -10 -5 0 -10 5 -10 10 0 6 5 10 10 10 6 0 10 -4 10 -10z
m535 0 c3 -5 -6 -12 -20 -16 -17 -4 -25 -13 -25 -28 0 -20 -1 -19 -13 4 -12
23 -11 26 12 37 32 15 38 15 46 3z m2725 -10 c11 -7 1 -10 -35 -10 -36 0 -46
3 -35 10 8 5 24 10 35 10 11 0 27 -5 35 -10z m-6484 -44 c27 -3 41 -10 48 -25
9 -21 46 -30 46 -11 0 17 17 11 23 -9 3 -14 14 -18 44 -18 46 0 103 -27 103
-49 0 -11 -4 -12 -17 -5 -10 5 -35 13 -55 19 -36 10 -37 9 -27 -10 10 -18 8
-19 -23 -16 -29 3 -33 6 -29 28 3 24 2 24 -16 8 -11 -10 -26 -18 -34 -18 -10
1 -9 4 4 14 16 12 16 14 1 20 -8 3 -24 6 -35 6 -21 0 -26 16 -6 23 7 3 4 6 -6
6 -10 1 -27 -4 -38 -9 -15 -8 -19 -7 -19 4 0 9 -11 18 -25 22 -24 6 -35 24
-15 24 6 0 10 8 10 18 1 16 1 16 14 -1 8 -10 30 -19 52 -21z m642 22 c-5 -13
-68 -31 -68 -19 0 8 40 28 58 30 8 0 12 -5 10 -11z m4285 -20 c-21 -23 -72
-52 -80 -45 -2 3 -20 -1 -38 -9 -28 -11 -34 -11 -38 1 -11 26 135 94 166 77 5
-2 0 -13 -10 -24z m908 1 c14 -27 -3 -23 -24 6 -15 20 -15 24 -2 19 9 -4 20
-15 26 -25z m-5071 9 c-1 -15 -50 -53 -50 -39 0 9 39 51 47 51 2 0 3 -6 3 -12z
m2383 5 c-7 -2 -21 -2 -30 0 -10 3 -4 5 12 5 17 0 24 -2 18 -5z m2003 -9 c-4
-8 -9 -21 -12 -29 -3 -8 -1 -15 6 -15 6 0 9 -4 6 -9 -3 -5 4 -11 16 -14 12 -4
19 -9 16 -12 -15 -16 -61 10 -74 41 -19 46 -18 49 17 50 22 1 29 -3 25 -12z
m899 7 c3 -5 1 -12 -5 -16 -5 -3 -10 1 -10 9 0 18 6 21 15 7z m-3562 -8 c3 -5
-6 -8 -19 -8 -13 0 -24 3 -24 8 0 4 9 7 19 7 11 0 22 -3 24 -7z m307 -3 c0 -5
-5 -10 -11 -10 -5 0 -7 5 -4 10 3 6 8 10 11 10 2 0 4 -4 4 -10z m180 -12 c9
-3 2 -9 -19 -16 -29 -10 -32 -10 -21 3 10 13 9 15 -11 16 l-24 1 25 7 c14 4
27 4 30 1 3 -4 12 -9 20 -12z m2068 10 c-3 -7 1 -19 9 -26 28 -28 16 -42 -34
-37 -27 2 -64 4 -83 5 l-35 1 25 14 c14 8 40 14 58 15 20 0 31 4 27 10 -3 6
-3 15 0 20 9 14 37 12 33 -2z m-5573 -7 c3 -5 1 -12 -5 -16 -5 -3 -10 1 -10 9
0 18 6 21 15 7z m915 -1 c0 -12 -48 -32 -59 -26 -20 13 1 36 30 34 16 -1 29
-5 29 -8z m2705 -11 c5 -6 3 -9 -8 -9 -10 0 -14 -5 -11 -15 4 -8 1 -15 -5 -15
-7 0 -14 7 -18 16 -3 8 -12 13 -19 10 -16 -6 -28 10 -19 25 7 11 64 3 80 -12z
m391 6 c8 -21 24 -19 25 3 0 14 2 14 9 -3 14 -32 12 -33 -42 -29 -109 8 -168
17 -168 25 0 5 32 8 70 6 39 -2 73 0 76 5 8 13 24 9 30 -7z m384 0 c0 -8 9
-15 20 -15 12 0 20 -7 20 -16 0 -11 -8 -15 -27 -14 -16 1 -30 1 -33 0 -3 -1
-26 -4 -51 -5 -34 -2 -46 1 -46 12 0 8 10 19 23 23 12 5 25 14 29 19 10 17 65
14 65 -4z m-1653 -17 c-3 -8 -6 -5 -6 6 -1 11 2 17 5 13 3 -3 4 -12 1 -19z
m3043 7 c10 -11 10 -19 2 -27 -6 -6 -8 -17 -5 -24 3 -9 -2 -14 -15 -14 -26 0
-38 18 -18 26 11 4 14 14 10 30 -7 27 7 32 26 9z m-5829 -33 c-13 -2 -28 2
-32 10 -16 24 -9 27 24 10 31 -16 31 -17 8 -20z m359 28 c12 -8 11 -10 -7 -10
-13 0 -23 5 -23 10 0 13 11 13 30 0z m360 -10 c0 -5 -4 -10 -10 -10 -5 0 -10
5 -10 10 0 6 5 10 10 10 6 0 10 -4 10 -10z m438 -4 c-10 -7 -18 -22 -18 -32 0
-15 2 -16 9 -5 12 18 17 4 16 -44 0 -34 -4 -41 -23 -43 -14 -2 -22 -9 -20 -20
2 -13 -4 -16 -37 -13 -47 3 -55 7 -55 25 0 8 11 14 26 14 23 0 43 15 44 32 0
3 -12 5 -27 4 -16 0 -31 4 -35 9 -4 7 -12 6 -24 -4 -15 -12 -17 -12 -12 1 2 8
14 16 26 18 12 2 22 8 22 13 0 5 -3 8 -7 7 -5 -2 -8 2 -8 7 0 6 4 9 9 7 5 -2
17 5 27 14 11 9 19 15 19 11 0 -3 12 -2 28 3 44 13 60 12 40 -4z m62 3 c0 6 9
11 19 11 14 0 19 -6 18 -20 -1 -18 -12 -24 -44 -23 -7 1 -13 -4 -13 -11 0 -6
-5 -4 -10 6 -14 24 -2 52 16 37 10 -8 14 -8 14 0z m245 1 c-3 -5 -10 -10 -16
-10 -5 0 -9 5 -9 10 0 6 7 10 16 10 8 0 12 -4 9 -10z m415 0 c0 -5 -4 -10 -10
-10 -5 0 -10 5 -10 10 0 6 5 10 10 10 6 0 10 -4 10 -10z m1930 -11 c0 -6 -4
-7 -10 -4 -5 3 -10 11 -10 16 0 6 5 7 10 4 6 -3 10 -11 10 -16z m3052 -9 c-9
-16 -21 -30 -25 -30 -9 0 -1 17 21 43 22 25 23 21 4 -13z m-6421 0 l24 -21
-39 16 c-49 19 -55 25 -29 25 12 0 31 -9 44 -20z m3018 -6 c1 -1 0 -7 -3 -13
-4 -7 -15 -7 -31 -1 -14 5 -33 7 -42 3 -15 -5 -14 -3 2 10 17 13 58 14 74 1z
m1111 -9 c30 -4 62 -9 70 -13 25 -9 -52 -19 -85 -10 -22 6 -31 4 -38 -7 -11
-21 -31 -19 -52 5 -17 18 -17 20 -1 20 9 0 19 7 22 15 4 11 10 12 18 6 6 -5
36 -13 66 -16z m-3565 5 c-3 -5 -12 -7 -20 -3 -21 7 -19 13 6 13 11 0 18 -4
14 -10z m1425 -27 c0 -43 -5 -41 -13 5 -4 18 -2 32 3 32 6 0 10 -16 10 -37z
m4278 15 c-6 -18 -28 -21 -28 -4 0 9 7 16 16 16 9 0 14 -5 12 -12z m422 -9 c0
-6 -4 -7 -10 -4 -5 3 -10 11 -10 16 0 6 5 7 10 4 6 -3 10 -11 10 -16z m-2700
1 c0 -5 -5 -10 -11 -10 -5 0 -7 5 -4 10 3 6 8 10 11 10 2 0 4 -4 4 -10z m2558
-10 c47 -10 62 -17 62 -30 0 -25 -26 -43 -65 -44 -22 -1 -42 -10 -55 -24 -28
-30 -43 -28 -37 5 7 35 -8 63 -33 63 -10 0 -21 4 -25 9 -11 18 17 23 56 11 30
-10 42 -11 51 -2 9 9 4 12 -20 12 -18 0 -32 5 -32 11 0 6 8 8 18 6 9 -3 45
-11 80 -17z m-5588 -10 c22 -11 40 -22 40 -24 0 -5 -75 10 -88 18 -11 7 -8 26
4 26 3 0 23 -9 44 -20z m2510 11 c0 -9 -60 -24 -68 -17 -2 3 -1 9 3 15 7 13
65 15 65 2z m-2605 -17 c9 -9 13 -19 9 -23 -4 -3 -9 0 -11 7 -3 6 -11 12 -19
12 -8 0 -14 5 -14 10 0 15 17 12 35 -6z m2715 6 c0 -13 -40 -13 -60 0 -11 7
-5 10 23 10 20 0 37 -4 37 -10z m-1504 -27 c-10 -10 -19 5 -10 18 6 11 8 11
12 0 2 -7 1 -15 -2 -18z m-1706 3 c0 -3 -4 -8 -10 -11 -5 -3 -10 -1 -10 4 0 6
5 11 10 11 6 0 10 -2 10 -4z m2886 -6 c17 0 24 -5 24 -20 0 -22 -5 -25 -62
-35 -33 -5 -38 -3 -38 14 0 11 -6 23 -12 27 -15 9 29 24 50 18 8 -2 25 -4 38
-4z m1834 -5 c-15 -18 -51 -16 -58 3 -2 8 8 12 33 12 33 0 36 -2 25 -15z
m-2030 -5 c0 -5 -8 -10 -17 -10 -10 0 -29 -3 -43 -5 -22 -5 -21 -3 5 9 36 18
55 20 55 6z m70 0 c0 -5 -4 -10 -10 -10 -5 0 -10 5 -10 10 0 6 5 10 10 10 6 0
10 -4 10 -10z m2048 -1 c13 0 14 -2 3 -6 -8 -3 -24 -17 -36 -31 l-22 -26 -13
24 c-11 20 -10 25 6 37 10 7 25 11 32 8 8 -3 21 -5 30 -6z m-4367 -22 c-13
-13 -26 -3 -16 12 3 6 11 8 17 5 6 -4 6 -10 -1 -17z m271 -27 c-4 -11 -8 -8
-12 10 -4 14 -5 29 -2 34 8 14 20 -27 14 -44z m-956 24 c17 -14 17 -15 1 -10
-10 3 -25 6 -33 6 -8 0 -14 5 -14 10 0 15 24 12 46 -6z m4814 7 c0 -5 -7 -14
-15 -21 -12 -10 -15 -10 -15 2 0 8 3 18 7 21 9 10 23 9 23 -2z m730 -1 c0 -5
-4 -10 -10 -10 -5 0 -10 5 -10 10 0 6 5 10 10 10 6 0 10 -4 10 -10z m-3049
-33 c-13 -13 -26 -3 -16 12 3 6 11 8 17 5 6 -4 6 -10 -1 -17z m309 13 c0 -5
-7 -10 -15 -10 -8 0 -15 5 -15 10 0 6 7 10 15 10 8 0 15 -4 15 -10z m770 -26
c0 -2 -7 -4 -15 -4 -8 0 -15 4 -15 10 0 5 7 7 15 4 8 -4 15 -8 15 -10z m1481
-19 c-24 -14 -46 -23 -49 -20 -3 3 -3 6 -1 8 35 21 67 35 79 36 8 0 -5 -11
-29 -24z m-2228 -5 c-3 -11 -13 -20 -22 -20 -29 0 -32 12 -8 26 32 17 36 17
30 -6z m-893 -11 c0 -6 -4 -7 -10 -4 -5 3 -10 11 -10 16 0 6 5 7 10 4 6 -3 10
-11 10 -16z m1039 14 c-10 -2 -19 -13 -22 -24 -4 -13 -12 -19 -23 -17 -25 5
-30 28 -5 28 11 0 23 5 26 10 3 6 14 9 23 9 15 -1 15 -2 1 -6z m1885 -4 c-3
-6 -22 -9 -40 -7 -37 4 -46 -7 -14 -17 24 -8 26 -21 4 -29 -22 -9 -26 -8 -18
5 3 6 1 15 -6 19 -26 16 -2 40 40 40 27 0 39 -4 34 -11z m-4164 -27 c3 -3 -7
-2 -22 2 -17 4 -29 2 -29 -4 -1 -5 -3 -14 -4 -20 -1 -5 -3 -13 -4 -17 -1 -5
-7 3 -12 16 -17 42 35 59 71 23z m5027 4 l28 -24 -28 -11 c-16 -6 -33 -8 -39
-5 -6 4 -17 -1 -24 -11 -15 -21 -19 -19 -28 11 -7 22 25 64 49 64 8 0 27 -11
42 -24z m649 -3 c14 -23 15 -26 1 -15 -9 8 -20 11 -26 8 -5 -3 -7 3 -4 14 7
25 7 25 29 -7z m144 23 c0 -2 -9 -6 -20 -9 -11 -3 -20 -1 -20 4 0 5 9 9 20 9
11 0 20 -2 20 -4z m-3990 -46 c5 0 10 6 13 13 2 6 7 9 11 6 10 -9 -4 -39 -19
-39 -13 0 -26 23 -24 43 1 7 3 4 6 -5 2 -10 8 -18 13 -18z m1538 3 c-11 -14
-10 -15 7 -10 74 22 110 27 140 21 37 -7 38 -24 1 -24 -12 0 -27 -5 -34 -12
-7 -7 -12 -9 -12 -6 0 3 -28 -1 -62 -8 -88 -19 -95 -18 -74 5 16 17 16 19 -6
24 -25 7 -16 22 17 29 29 6 38 -1 23 -19z m1392 17 c0 -5 -4 -10 -10 -10 -5 0
-10 5 -10 10 0 6 5 10 10 10 6 0 10 -4 10 -10z m871 -30 c5 0 9 -4 9 -10 0
-14 -28 -1 -34 17 -3 8 -3 20 1 26 5 8 9 4 11 -10 2 -13 8 -23 13 -23z m-6917
21 c3 -5 -3 -11 -13 -14 -12 -3 -22 1 -25 9 -6 16 29 20 38 5z m842 -48 c-6
-6 -76 38 -76 48 0 5 18 -3 40 -17 22 -15 39 -29 36 -31z m2554 45 c20 2 22 1
10 -7 -18 -13 -70 -14 -70 -3 0 15 12 22 24 15 6 -4 22 -6 36 -5z m2060 2 c0
-5 -5 -10 -11 -10 -5 0 -7 5 -4 10 3 6 8 10 11 10 2 0 4 -4 4 -10z m-1232 -12
c-2 -8 9 -14 25 -16 38 -5 67 -35 60 -61 -3 -12 -11 -21 -18 -21 -7 0 -15 -18
-19 -42 -8 -55 -15 -64 -51 -71 -16 -3 -24 -4 -17 -1 8 4 5 12 -13 26 -14 10
-30 16 -36 12 -6 -3 -16 0 -21 7 -7 11 -11 11 -15 2 -2 -7 -11 -13 -18 -13
-25 0 -28 -22 -6 -51 11 -15 21 -32 21 -38 0 -20 -26 -17 -48 7 -40 43 -84 59
-147 55 -31 -2 -69 -10 -85 -18 -16 -8 -37 -15 -47 -15 -14 -1 -13 -4 7 -15
20 -11 21 -14 7 -15 -10 0 -16 -4 -13 -9 6 -9 -16 -21 -39 -21 -15 0 -45 69
-45 104 0 18 7 25 33 31 37 9 33 9 72 -1 27 -6 28 -5 17 8 -9 11 -10 18 -2 23
5 3 12 0 15 -7 7 -17 42 -20 67 -7 12 7 24 6 36 0 16 -10 16 -10 -1 -11 -10 0
-16 -4 -13 -8 6 -11 64 -3 72 9 3 5 14 9 25 9 25 0 99 49 99 66 0 7 9 19 20
27 22 16 17 27 -14 28 -20 0 -20 1 2 12 18 8 29 8 44 -2 11 -7 17 -8 13 -2 -3
6 -3 16 0 21 9 14 35 12 33 -2z m162 2 c-20 -13 -33 -13 -25 0 3 6 14 10 23
10 15 0 15 -2 2 -10z m2671 -17 c-8 -15 -10 -15 -11 -2 0 17 10 32 18 25 2 -3
-1 -13 -7 -23z m-3736 -2 c-3 -6 -15 -11 -25 -11 -26 0 -33 -15 -15 -30 12
-10 15 -10 15 0 0 8 9 11 25 8 14 -3 25 -1 25 3 0 14 28 11 33 -3 4 -10 7 -10
18 0 15 14 29 16 29 3 0 -18 -102 -46 -156 -42 -24 1 -30 -3 -29 -16 0 -10 4
-23 7 -29 4 -5 3 -16 -1 -22 -12 -19 -34 12 -26 37 5 15 0 21 -24 26 -16 3
-39 2 -50 -4 -26 -15 -31 -14 -31 4 0 9 -7 18 -15 21 -8 4 -15 13 -15 21 0 12
3 13 13 4 8 -6 17 -8 20 -4 4 3 22 -2 41 -12 29 -16 37 -17 50 -6 9 8 16 22
16 32 0 15 7 19 33 19 17 0 39 4 47 10 17 10 25 6 15 -9z m778 2 c-7 -2 -19
-2 -25 0 -7 3 -2 5 12 5 14 0 19 -2 13 -5z m2284 -14 c-5 -20 -2 -20 50 -16
59 5 93 0 93 -14 0 -5 -31 -8 -69 -8 -38 1 -74 -2 -80 -5 -5 -4 -22 -4 -36 0
-20 5 -23 9 -14 20 6 8 20 14 30 14 11 0 19 7 19 15 0 8 3 15 6 15 4 0 4 -9 1
-21z m-5247 -9 c0 -5 -4 -10 -10 -10 -5 0 -10 5 -10 10 0 6 5 10 10 10 6 0 10
-4 10 -10z m4475 0 c-3 -5 -14 -10 -23 -10 -15 0 -15 2 -2 10 20 13 33 13 25
0z m1107 -8 c41 -21 88 -57 88 -67 0 -3 -8 -5 -17 -4 -18 2 -44 -5 -73 -20 -8
-5 -30 2 -55 16 -22 12 -47 23 -57 23 -14 0 -14 4 -5 25 10 21 40 38 77 44 3
1 22 -7 42 -17z m-6406 -20 c-4 -3 -14 2 -24 12 -16 18 -16 18 6 6 13 -6 21
-14 18 -18z m79 18 c-3 -5 -12 -7 -20 -3 -21 7 -19 13 6 13 11 0 18 -4 14 -10z
m3735 6 c0 -3 -4 -8 -10 -11 -5 -3 -10 -1 -10 4 0 6 5 11 10 11 6 0 10 -2 10
-4z m2794 -5 c3 -4 -6 -6 -19 -3 -14 2 -25 6 -25 8 0 8 39 4 44 -5z m-6769
-11 c3 -5 1 -10 -4 -10 -6 0 -11 5 -11 10 0 6 2 10 4 10 3 0 8 -4 11 -10z
m1022 4 c-3 -3 -12 -4 -19 -1 -8 3 -5 6 6 6 11 1 17 -2 13 -5z m3323 -24 c3
-1 -4 -5 -14 -9 -24 -9 -66 -2 -66 10 0 8 53 7 80 -1z m-3886 -9 c3 -4 -6 -6
-19 -3 -14 2 -25 6 -25 8 0 8 39 4 44 -5z m2911 -1 c-3 -5 -12 -10 -18 -10 -7
0 -6 4 3 10 19 12 23 12 15 0z m1595 0 c0 -5 -2 -10 -4 -10 -3 0 -8 5 -11 10
-3 6 -1 10 4 10 6 0 11 -4 11 -10z m-4420 -10 c13 -9 13 -10 0 -10 -8 0 -22 5
-30 10 -13 9 -13 10 0 10 8 0 22 -5 30 -10z m5570 2 c0 -11 -22 -32 -32 -32
-5 0 -4 9 2 20 11 20 30 28 30 12z m-3850 -24 c0 -16 -3 -19 -11 -11 -6 6 -8
16 -5 22 11 17 16 13 16 -11z m1040 -5 c0 -19 -3 -24 -10 -17 -6 6 -8 18 -4
27 9 24 14 21 14 -10z m160 -5 c0 -12 -24 -10 -38 4 -20 20 -13 28 13 16 14
-6 25 -15 25 -20z m-2340 12 c0 -5 -4 -10 -10 -10 -5 0 -10 5 -10 10 0 6 5 10
10 10 6 0 10 -4 10 -10z m2117 -31 c3 -20 0 -21 -32 -16 -19 3 -42 13 -51 21
-14 15 -13 16 15 16 16 0 33 5 37 11 9 15 27 -4 31 -32z m-3068 22 c12 -8 12
-12 2 -25 -19 -23 -31 -20 -31 9 0 27 6 30 29 16z m3410 5 c-12 -10 -99 -16
-99 -7 0 7 22 11 52 11 28 0 49 -2 47 -4z m801 -5 c0 -5 -7 -17 -16 -25 -14
-15 -14 -16 3 -17 10 0 13 -3 7 -5 -6 -3 -22 0 -35 5 l-24 9 28 12 c15 7 27
17 27 22 0 4 2 8 5 8 3 0 5 -4 5 -9z m227 3 c-3 -3 -12 -4 -19 -1 -8 3 -5 6 6
6 11 1 17 -2 13 -5z m543 -4 c0 -5 -8 -10 -18 -10 -10 0 -23 -5 -29 -11 -6 -6
-17 -9 -25 -6 -8 3 1 11 22 20 42 19 50 20 50 7z m1492 -12 c-17 -8 -26 -8
-34 0 -9 9 -4 12 23 11 32 0 33 -1 11 -11z m-232 -26 c0 -15 -2 -15 -10 -2
-13 20 -13 33 0 25 6 -3 10 -14 10 -23z m65 18 c-27 -12 -35 -12 -35 0 0 6 12
10 28 9 24 0 25 -1 7 -9z m-6148 -6 c-3 -3 -12 -4 -19 -1 -8 3 -5 6 6 6 11 1
17 -2 13 -5z m2233 -3 c0 -6 -4 -13 -10 -16 -5 -3 -10 1 -10 9 0 9 5 16 10 16
6 0 10 -4 10 -9z m460 -11 c0 -5 -2 -10 -4 -10 -3 0 -8 5 -11 10 -3 6 -1 10 4
10 6 0 11 -4 11 -10z m3510 0 c0 -5 -17 -10 -37 -10 -28 0 -34 3 -23 10 20 13
60 13 60 0z m-2266 -31 c-26 -28 -11 -33 30 -9 49 27 53 25 18 -10 -24 -24
-39 -30 -71 -30 -23 0 -41 4 -41 9 0 5 -9 11 -21 14 -26 7 -16 27 14 27 12 0
30 7 40 15 11 7 25 11 33 8 13 -5 12 -8 -2 -24z m2362 -7 c-21 -5 -20 -22 1
-22 9 0 14 -2 11 -5 -8 -8 -98 16 -98 26 0 4 9 11 20 14 11 3 20 11 20 16 0 6
14 2 31 -8 21 -13 26 -19 15 -21z m-3553 11 c-7 -2 -9 -11 -7 -18 8 -19 -43
-32 -59 -15 -9 10 -9 14 1 17 6 3 10 9 7 14 -4 5 1 6 9 3 8 -3 23 -1 33 4 10
6 20 8 23 5 3 -3 0 -8 -7 -10z m3662 -3 c-3 -5 -11 -10 -16 -10 -6 0 -7 5 -4
10 3 6 11 10 16 10 6 0 7 -4 4 -10z m-1930 -10 c-3 -5 -15 -10 -26 -10 -11 0
-17 5 -14 10 3 6 15 10 26 10 11 0 17 -4 14 -10z m-3961 -15 c-4 -8 -10 -15
-15 -15 -5 0 -9 7 -9 15 0 8 7 15 15 15 9 0 12 -6 9 -15z m956 0 c0 -8 -4 -15
-10 -15 -5 0 -10 7 -10 15 0 8 5 15 10 15 6 0 10 -7 10 -15z m4601 5 c10 -6
19 -15 19 -20 0 -17 -26 -11 -45 10 -20 22 -7 27 26 10z m-1734 -26 c-3 -4
-14 -3 -24 0 -15 6 -15 8 -3 16 16 10 39 -4 27 -16z m-1672 -15 c0 -21 -26
-17 -42 8 -14 21 -14 21 14 14 15 -4 28 -14 28 -22z m1625 11 c3 -4 14 -12 25
-18 17 -10 13 -11 -27 -12 -27 0 -48 -4 -48 -10 0 -5 4 -10 9 -10 5 0 9 -13 9
-29 -1 -18 -5 -27 -13 -25 -6 3 -24 0 -38 -5 -24 -9 -26 -13 -17 -36 9 -24 8
-26 -12 -20 -13 4 -31 9 -41 12 -10 3 -32 -1 -48 -7 -31 -13 -139 -5 -139 10
0 5 22 6 49 3 55 -6 101 2 101 18 0 21 33 79 45 79 6 0 20 10 31 21 35 39 95
54 114 29z m845 0 c-3 -5 -10 -10 -16 -10 -5 0 -9 5 -9 10 0 6 7 10 16 10 8 0
12 -4 9 -10z m-2848 -40 c0 -16 -2 -30 -3 -30 -9 0 -24 42 -19 50 12 19 22 10
22 -20z m-865 -5 c6 -31 -14 -51 -31 -31 -9 11 -9 19 1 35 17 27 25 26 30 -4z
m1332 11 c-24 -18 -10 -34 16 -18 24 15 25 10 5 -27 -28 -56 -65 -43 -50 16 6
27 21 43 39 43 6 0 1 -6 -10 -14z m-845 -5 c13 -8 13 -14 -2 -78 -4 -16 -17
-29 -17 -17 0 15 -51 16 -68 2 -13 -11 -15 -10 -9 5 4 10 7 22 7 27 0 14 51
70 63 70 7 0 18 -4 26 -9z m311 -1 c0 -5 -2 -10 -4 -10 -3 0 -8 5 -11 10 -3 6
-1 10 4 10 6 0 11 -4 11 -10z m907 -7 c2 -5 17 -7 33 -5 43 6 39 -21 -6 -37
-33 -12 -37 -11 -59 13 -13 14 -32 26 -42 26 -10 0 -24 4 -31 9 -9 5 9 8 44 6
32 -1 59 -6 61 -12z m2163 3 c0 -18 -88 -62 -117 -58 -13 2 -23 8 -23 13 0 5
3 8 8 8 20 -4 73 15 88 32 20 22 44 25 44 5z m956 5 c-7 -10 20 -9 30 2 10 9
34 -12 34 -29 0 -8 -12 -15 -27 -16 -80 -5 -93 -3 -93 11 0 11 -4 11 -19 -3
-17 -16 -23 -16 -92 3 l-74 19 100 1 c55 1 107 6 115 11 19 12 33 13 26 1z
m-4940 -46 c-9 -19 -24 -35 -32 -35 -12 0 -12 4 2 25 9 14 20 25 25 25 5 0 9
8 9 17 0 9 3 13 6 10 4 -3 -1 -22 -10 -42z m1364 24 c0 -5 -10 -9 -21 -9 -18
0 -19 2 -9 15 12 15 30 12 30 -6z m2060 11 c0 -5 -7 -10 -15 -10 -8 0 -15 5
-15 10 0 6 7 10 15 10 8 0 15 -4 15 -10z m-3969 -12 c0 -10 2 -10 6 0 8 19 32
14 30 -7 0 -11 -5 -17 -11 -14 -5 4 -7 -2 -4 -13 5 -20 -12 -44 -32 -44 -5 0
-10 5 -10 10 0 6 5 10 10 10 6 0 10 9 10 21 0 11 -4 17 -10 14 -5 -3 -10 3
-10 14 0 22 19 30 21 9z m3799 2 c0 -5 -4 -10 -10 -10 -5 0 -10 5 -10 10 0 6
5 10 10 10 6 0 10 -4 10 -10z m-2170 -25 c0 -17 -7 -28 -22 -34 -30 -11 -36
-7 -31 23 3 15 13 27 27 29 11 2 22 5 24 6 1 0 2 -10 2 -24z m-1300 5 c0 -5
-4 -10 -10 -10 -5 0 -10 5 -10 10 0 6 5 10 10 10 6 0 10 -4 10 -10z m290 -10
c0 -5 11 -12 25 -16 26 -7 29 -12 17 -31 -5 -8 -13 -9 -22 -3 -8 6 -10 10 -5
11 12 1 -25 17 -42 18 -7 1 -10 -9 -7 -23 3 -18 -1 -25 -17 -29 -19 -5 -21 -3
-15 25 3 17 11 37 17 45 13 15 49 18 49 3z m950 6 c0 -3 -4 -8 -10 -11 -5 -3
-10 -1 -10 4 0 6 5 11 10 11 6 0 10 -2 10 -4z m2477 -8 c-2 -8 -18 -12 -40
-10 -22 2 -37 -1 -37 -7 0 -6 -7 -11 -15 -11 -27 0 -16 17 18 28 46 15 80 14
74 0z m-4272 -8 c-3 -5 -11 -10 -16 -10 -6 0 -7 5 -4 10 3 6 11 10 16 10 6 0
7 -4 4 -10z m1755 0 c0 -5 -5 -10 -11 -10 -5 0 -7 5 -4 10 3 6 8 10 11 10 2 0
4 -4 4 -10z m365 2 c16 -11 55 -63 55 -74 0 -4 -12 -6 -27 -4 -27 5 -43 21
-43 43 0 6 -3 18 -6 27 -6 17 4 21 21 8z m2442 -12 c1 -13 -4 -20 -16 -20 -25
0 -33 11 -20 27 17 19 35 16 36 -7z m1033 10 c0 -5 -6 -10 -14 -10 -8 0 -18 5
-21 10 -3 6 3 10 14 10 12 0 21 -4 21 -10z m-2487 -7 c9 -9 -13 -34 -24 -27
-14 8 -11 34 4 34 8 0 17 -3 20 -7z m1497 -3 c0 -5 -7 -10 -16 -10 -8 0 -12 5
-9 10 3 6 10 10 16 10 5 0 9 -4 9 -10z m-4200 -15 c0 -8 -4 -15 -9 -15 -13 0
-22 16 -14 24 11 11 23 6 23 -9z m3560 -26 c0 -11 -6 -19 -14 -19 -19 0 -30
17 -17 25 6 3 7 13 4 23 -6 15 -5 15 10 3 9 -7 17 -22 17 -32z m270 31 c0 -5
-5 -10 -11 -10 -5 0 -7 5 -4 10 3 6 8 10 11 10 2 0 4 -4 4 -10z m-3910 -21 c0
-5 -7 -9 -15 -9 -15 0 -20 12 -9 23 8 8 24 -1 24 -14z m747 -1 c-3 -8 -6 -5
-6 6 -1 11 2 17 5 13 3 -3 4 -12 1 -19z m1283 12 c0 -5 -24 -10 -54 -10 -30 0
-61 -3 -70 -6 -9 -3 -16 -1 -16 4 0 13 28 19 93 21 26 0 47 -3 47 -9z m3170
-10 c0 -5 10 -11 23 -13 19 -4 18 -4 -5 -6 -16 0 -28 3 -28 8 0 5 -7 11 -15
15 -10 3 -15 -1 -15 -13 0 -10 6 -19 13 -18 6 0 21 -1 32 -1 28 -3 6 -20 -30
-24 -26 -3 -30 1 -36 29 -3 18 -3 30 2 28 4 -3 10 -1 13 4 7 11 46 3 46 -9z
m133 6 c8 -20 1 -23 -35 -18 -29 4 -30 6 -13 18 24 18 41 18 48 0z m-2825 -15
c11 -6 11 -10 0 -18 -22 -18 -71 -21 -113 -8 l-40 12 40 7 c22 4 45 9 50 11
19 6 50 5 63 -4z m479 3 c-13 -13 -121 -53 -126 -47 -4 3 0 8 6 10 7 3 23 13
35 23 20 17 101 30 85 14z m1418 -3 c-15 -14 -75 -24 -75 -12 0 9 24 17 65 20
11 0 15 -3 10 -8z m645 -7 c0 -2 -9 -4 -20 -4 -11 0 -20 4 -20 9 0 5 9 7 20 4
11 -3 20 -7 20 -9z m-4350 -4 c0 -5 -5 -10 -11 -10 -5 0 -7 5 -4 10 3 6 8 10
11 10 2 0 4 -4 4 -10z m4921 -19 c-28 -31 -40 -26 -21 8 6 12 19 21 29 21 16
0 15 -4 -8 -29z m-3720 0 c-7 -5 -10 -14 -7 -20 4 -6 2 -11 -3 -11 -6 0 -11 2
-11 4 0 2 -3 11 -6 19 -3 10 1 17 13 19 23 6 31 -1 14 -11z m879 10 c0 -12
-20 -25 -27 -18 -7 7 6 27 18 27 5 0 9 -4 9 -9z m2330 -6 c0 -9 -9 -15 -25
-15 -16 0 -25 6 -25 15 0 9 9 15 25 15 16 0 25 -6 25 -15z m-5080 -29 c-1 -20
-2 -20 -14 -3 -7 9 -21 17 -30 17 -9 0 -16 4 -16 8 0 5 14 7 30 4 23 -3 30 -9
30 -26z m490 7 c0 -3 -20 -3 -45 0 -25 4 -47 2 -50 -3 -3 -6 -11 -10 -17 -10
-19 0 12 29 35 32 23 4 77 -10 77 -19z m1467 21 c28 -8 19 -31 -13 -31 -26 0
-39 11 -29 27 7 11 12 12 42 4z m2463 -4 c0 -5 -2 -10 -4 -10 -3 0 -8 5 -11
10 -3 6 -1 10 4 10 6 0 11 -4 11 -10z m-236 -9 c3 -5 -1 -11 -9 -15 -9 -3 -15
0 -15 9 0 16 16 20 24 6z m-3608 -26 c-3 -9 -11 -13 -16 -10 -8 5 -7 11 1 21
14 18 24 11 15 -11z m1264 5 c0 -23 -19 -26 -39 -7 -11 10 -13 8 -8 -10 3 -13
1 -23 -5 -23 -5 0 -8 10 -6 23 2 12 8 22 15 22 6 0 15 3 19 8 13 13 24 7 24
-13z m954 -7 c-23 -17 -67 -17 -62 -1 5 15 47 27 67 20 11 -4 10 -8 -5 -19z
m-2734 8 c0 -5 -3 -16 -6 -25 -5 -13 -10 -13 -27 -5 -20 11 -20 12 -2 25 22
16 35 18 35 5z m-460 -22 c0 -6 -4 -7 -10 -4 -5 3 -10 11 -10 16 0 6 5 7 10 4
6 -3 10 -11 10 -16z m1230 17 c0 -3 -4 -8 -10 -11 -5 -3 -10 -1 -10 4 0 6 5
11 10 11 6 0 10 -2 10 -4z m4290 -11 c0 -8 -6 -15 -12 -15 -7 0 -24 -9 -38
-20 -25 -19 -60 -27 -60 -12 0 5 88 56 108 61 1 1 2 -6 2 -14z m-5600 1 c0 -3
-4 -8 -10 -11 -5 -3 -10 -1 -10 4 0 6 5 11 10 11 6 0 10 -2 10 -4z m1552 -31
c-6 -35 -19 -31 -14 5 2 16 8 28 12 25 4 -2 5 -16 2 -30z m254 8 c-10 -10 -19
5 -10 18 6 11 8 11 12 0 2 -7 1 -15 -2 -18z m954 22 c0 -7 -73 -25 -82 -19
-18 11 5 24 43 24 21 0 39 -2 39 -5z m-3197 -31 c30 -28 30 -42 0 -29 -10 5
-24 7 -30 6 -7 -1 -13 5 -13 14 0 8 -4 15 -10 15 -5 0 -10 5 -10 10 0 19 35
10 63 -16z m2087 13 c0 -7 -7 -22 -15 -33 -14 -18 -14 -18 -15 7 0 14 3 29 7
32 11 11 23 8 23 -6z m2990 -2 c-7 -9 -15 -13 -17 -11 -7 7 7 26 19 26 6 0 6
-6 -2 -15z m1555 5 c-3 -5 -13 -10 -21 -10 -8 0 -14 5 -14 10 0 6 9 10 21 10
11 0 17 -4 14 -10z m-5328 -6 c-3 -3 -12 -4 -19 -1 -8 3 -5 6 6 6 11 1 17 -2
13 -5z m883 -14 c0 -5 -4 -10 -10 -10 -5 0 -10 5 -10 10 0 6 5 10 10 10 6 0
10 -4 10 -10z m1790 3 c0 -5 -5 -15 -10 -23 -8 -12 -10 -11 -10 8 0 12 5 22
10 22 6 0 10 -3 10 -7z m-2307 -20 c18 -9 27 -18 19 -21 -7 -2 -18 1 -26 7 -9
7 -16 7 -24 -1 -13 -13 -46 8 -36 23 8 14 31 11 67 -8z m4880 -3 c6 -25 -9
-36 -29 -20 -11 10 -12 16 -3 26 16 19 26 17 32 -6z m-2447 -5 c20 -8 34 -20
32 -27 -5 -14 -78 -20 -78 -7 0 5 -8 6 -17 2 -15 -5 -16 -4 -5 8 10 11 7 16
-20 26 l-33 11 43 1 c23 1 59 -6 78 -14z m1845 -58 c-15 -16 -22 -17 -40 -7
-12 6 -32 8 -44 5 -12 -4 -17 -3 -11 2 6 4 13 18 17 31 4 19 3 21 -9 11 -10
-8 -14 -8 -14 -1 0 7 14 15 31 20 27 6 37 3 60 -17 28 -25 29 -26 10 -44z
m165 38 c-4 -14 -11 -23 -16 -20 -14 9 -12 43 3 48 18 6 20 1 13 -28z m-5307
-12 c-2 -36 6 -106 17 -145 8 -27 -21 -22 -40 7 -10 16 -22 22 -34 19 -15 -5
-15 -4 1 9 18 15 18 16 0 26 -17 10 -17 10 1 11 13 0 16 3 9 13 -15 18 -12 47
4 47 7 0 18 11 23 25 14 36 22 31 19 -12z m2471 27 c0 -5 -6 -10 -14 -10 -8 0
-18 5 -21 10 -3 6 3 10 14 10 12 0 21 -4 21 -10z m1208 -7 c2 -7 -3 -13 -12
-13 -23 0 -20 -13 6 -29 22 -14 22 -14 3 -21 -26 -10 -35 -4 -35 22 0 15 -4
18 -17 14 -21 -8 -35 14 -21 32 14 16 70 12 76 -5z m-2644 1 c21 -8 23 -84 2
-84 -14 0 -39 74 -28 85 7 6 7 6 26 -1z m4393 -3 c20 7 30 6 43 -6 17 -15 19
-15 28 1 8 15 14 16 34 7 l23 -12 -26 0 c-15 -1 -32 -8 -39 -16 -7 -9 -20 -13
-28 -10 -8 3 -16 -3 -19 -15 -3 -12 -10 -17 -17 -13 -6 4 -15 8 -21 9 -5 0
-16 2 -22 2 -7 1 -13 6 -13 11 0 5 6 11 13 14 6 2 2 2 -10 0 -13 -2 -23 1 -23
7 0 13 44 31 48 19 2 -4 15 -4 29 2z m172 -17 c3 -16 1 -17 -13 -5 -19 16 -21
34 -3 29 6 -3 14 -13 16 -24z m-5519 -22 c-6 -2 -8 -8 -5 -12 3 -5 12 -7 19
-4 14 5 31 -25 20 -35 -4 -3 -9 0 -11 7 -3 6 -14 12 -26 11 -21 0 -21 -1 -2
-10 18 -8 18 -8 -5 -6 -21 2 -25 7 -26 38 -1 34 0 35 22 25 13 -6 19 -13 14
-14z m1040 -2 c0 -16 -4 -30 -10 -30 -11 0 -14 43 -3 53 11 12 13 8 13 -23z
m1120 20 c0 -5 -2 -10 -4 -10 -3 0 -8 5 -11 10 -3 6 -1 10 4 10 6 0 11 -4 11
-10z m2700 -10 c0 -13 -28 -25 -38 -16 -3 4 0 11 8 16 20 13 30 12 30 0z m37
-22 c-16 -10 -21 -2 -13 19 6 15 9 15 16 3 6 -9 5 -17 -3 -22z m-3032 0 c-28
-15 -28 -15 -21 -26 4 -7 25 -5 59 3 43 12 297 28 297 19 0 -6 -109 -23 -175
-28 -80 -6 -145 -22 -145 -36 0 -6 -7 -10 -15 -10 -8 0 -14 -5 -12 -11 4 -21
-20 -20 -26 1 -3 11 -13 23 -23 27 -18 7 -88 -25 -125 -58 -20 -17 -22 -16
-78 16 -59 35 -116 59 -163 69 -16 4 -28 11 -28 17 0 6 3 8 8 6 4 -3 63 -8
132 -12 69 -4 128 -9 133 -12 4 -2 32 -4 62 -4 56 0 85 15 77 39 -2 8 7 12 30
12 30 -1 31 -2 13 -12z m-2460 -8 c3 -5 2 -10 -4 -10 -5 0 -13 5 -16 10 -3 6
-2 10 4 10 5 0 13 -4 16 -10z m89 -7 c7 3 17 2 22 -3 5 -5 26 -11 47 -13 46
-5 61 -18 63 -58 1 -23 -2 -29 -15 -25 -55 15 -77 16 -103 5 -21 -9 -31 -9
-42 0 -11 9 -29 10 -72 2 -71 -14 -77 -14 -69 -1 12 20 -89 -7 -156 -41 -54
-27 -57 -10 -4 23 25 15 45 33 45 38 0 6 7 10 16 10 8 0 25 5 37 12 12 7 36
13 52 14 45 2 113 23 127 38 9 10 17 11 25 4 7 -6 19 -8 27 -5z m81 7 c8 -13
-5 -13 -25 0 -13 8 -13 10 2 10 9 0 20 -4 23 -10z m635 -10 c0 -5 -4 -10 -10
-10 -5 0 -10 5 -10 10 0 6 5 10 10 10 6 0 10 -4 10 -10z m280 -11 c0 -5 -4 -9
-10 -9 -5 0 -10 7 -10 16 0 8 5 12 10 9 6 -3 10 -10 10 -16z m-130 -9 c0 -5
-5 -10 -11 -10 -5 0 -7 5 -4 10 3 6 8 10 11 10 2 0 4 -4 4 -10z m1996 -3 c4
-4 -2 -17 -14 -29 -21 -21 -23 -21 -74 -6 -29 9 -68 19 -86 23 -18 4 -29 11
-26 17 7 11 188 7 200 -5z m392 1 c-3 -7 -15 -14 -29 -16 -24 -4 -24 -3 -4 12
24 19 38 20 33 4z m2444 -10 c-2 -12 5 -16 32 -15 20 1 39 -2 43 -6 13 -14
-15 -29 -56 -30 -22 -1 -41 -5 -41 -9 0 -4 -7 -4 -17 -1 -12 5 -14 3 -8 -7 6
-10 4 -12 -9 -7 -10 4 -22 7 -27 7 -5 0 -9 9 -9 21 0 18 4 20 27 14 23 -5 25
-4 14 9 -11 13 -11 19 -1 31 17 21 56 16 52 -7z m-5992 3 c0 -6 -4 -13 -10
-16 -5 -3 -10 1 -10 9 0 9 5 16 10 16 6 0 10 -4 10 -9z m598 -15 c-25 -12 -63
-35 -83 -50 -31 -24 -34 -30 -23 -43 7 -9 26 -22 43 -29 16 -7 24 -13 18 -14
-22 0 -14 -20 7 -20 11 0 20 -3 20 -8 0 -4 18 -6 39 -4 31 3 44 -1 57 -17 10
-12 26 -21 35 -21 19 0 45 -35 55 -74 5 -23 11 -26 53 -27 l46 -2 -40 -7 -40
-7 43 -2 c47 -1 56 -17 15 -27 -16 -3 -44 -17 -64 -31 -41 -27 -84 -24 -94 8
-4 10 -11 19 -16 19 -6 0 -8 4 -5 9 4 5 22 5 43 0 53 -11 61 4 17 30 -29 17
-39 19 -45 9 -6 -9 -11 -4 -18 14 -6 15 -23 35 -38 44 -15 9 -41 26 -57 37
-17 11 -31 15 -35 10 -3 -6 -29 -13 -57 -17 -51 -6 -52 -6 -62 24 -6 16 -18
30 -26 30 -9 0 -16 7 -16 17 0 15 -1 15 -19 -1 -18 -16 -20 -15 -40 19 l-21
36 21 -6 c16 -5 20 -3 17 12 -2 14 4 19 29 21 28 3 32 0 38 -27 4 -21 14 -33
30 -37 47 -12 57 17 30 84 l-15 37 19 -25 20 -25 25 28 c30 32 80 56 116 56
20 0 16 -4 -22 -23z m3214 -29 c-11 -24 -25 -48 -31 -51 -6 -4 -11 -16 -11
-27 0 -17 -6 -19 -48 -18 -29 1 -65 -6 -94 -19 -26 -11 -49 -18 -52 -14 -11
10 -6 32 7 32 13 1 57 34 57 45 0 3 -9 3 -20 0 -14 -5 -20 -2 -20 9 0 19 23
21 52 5 23 -12 25 -11 30 16 4 26 20 42 53 55 50 19 72 6 41 -25 -10 -10 -16
-11 -25 -2 -8 8 -11 7 -11 -4 0 -9 3 -19 6 -22 10 -10 62 31 69 54 4 11 9 18
12 16 2 -3 -4 -25 -15 -50z m-4247 33 c8 -13 -20 -24 -41 -16 -20 8 -9 26 16
26 10 0 22 -5 25 -10z m5332 -7 c2 -6 -7 -8 -23 -5 -19 3 -22 7 -12 13 15 10
30 7 35 -8z m-4947 -29 c0 -8 -5 -12 -10 -9 -6 4 -8 11 -5 16 9 14 15 11 15
-7z m1170 12 c0 -3 -4 -8 -10 -11 -5 -3 -10 -1 -10 4 0 6 5 11 10 11 6 0 10
-2 10 -4z m4570 0 c0 -3 -4 -8 -10 -11 -5 -3 -10 -1 -10 4 0 6 5 11 10 11 6 0
10 -2 10 -4z m28 -21 c-3 -3 -9 2 -12 12 -6 14 -5 15 5 6 7 -7 10 -15 7 -18z
m-4696 -7 c-7 -7 -12 -8 -12 -2 0 14 12 26 19 19 2 -3 -1 -11 -7 -17z m4738
12 c0 -5 -8 -10 -17 -10 -15 0 -16 2 -3 10 19 12 20 12 20 0z m-3164 -26 c-3
-9 -6 -20 -6 -24 0 -5 -10 -15 -22 -21 -13 -6 -20 -8 -16 -4 4 5 3 14 -3 21
-7 9 -4 17 13 28 29 20 42 20 34 0z m81 -16 c-33 -7 -47 -3 -47 12 0 13 64 17
72 5 4 -6 -6 -13 -25 -17z m2203 2 c-19 -13 -30 -13 -30 0 0 6 10 10 23 10 18
0 19 -2 7 -10z m855 -40 c-3 -5 -14 -6 -25 -3 -11 3 -18 9 -15 13 3 5 14 6 25
3 11 -3 18 -9 15 -13z m-5441 -17 c-8 -6 -9 -24 -4 -58 4 -27 6 -52 4 -54 -8
-9 -36 11 -31 22 3 8 1 20 -4 28 -6 10 -9 7 -9 -13 0 -38 -18 -35 -66 8 -21
19 -32 34 -24 32 8 -2 24 6 35 17 13 13 36 21 65 23 25 1 40 -1 34 -5z m1766
-20 c0 -7 7 -13 16 -13 9 0 14 -6 11 -12 -2 -7 7 -25 21 -40 14 -15 23 -31 19
-35 -7 -7 -115 15 -132 27 -22 16 -111 40 -144 40 -78 0 -109 29 -33 31 20 0
45 3 55 7 9 4 55 7 102 7 63 1 85 -2 85 -12z m690 7 c0 -5 -7 -10 -15 -10 -8
0 -15 5 -15 10 0 6 7 10 15 10 8 0 15 -4 15 -10z m973 -11 c-18 -5 -35 -14
-38 -19 -7 -11 -55 -14 -55 -4 0 17 40 33 80 33 44 -1 44 -1 13 -10z m362 -12
l40 -11 -33 -4 c-19 -2 -54 3 -78 12 -25 8 -51 13 -58 10 -8 -3 -17 0 -22 7
-8 14 85 6 151 -14z m-4475 -8 c0 -5 -4 -9 -10 -9 -5 0 -10 7 -10 16 0 8 5 12
10 9 6 -3 10 -10 10 -16z m4249 7 c-21 -6 -45 -19 -56 -28 -18 -17 -63 -15
-63 2 0 10 98 38 130 38 20 0 18 -2 -11 -12z m-3929 -6 c0 -5 -7 -7 -15 -4 -8
4 -15 8 -15 10 0 2 7 4 15 4 8 0 15 -4 15 -10z m1805 -12 c-5 -13 -65 -51 -65
-42 0 3 8 16 18 29 18 25 55 35 47 13z m-1411 -30 c3 -16 2 -28 -3 -28 -13 0
-24 37 -16 51 9 13 11 11 19 -23z m1352 17 c-21 -16 -32 -13 -21 4 3 6 14 11
23 11 15 -1 15 -2 -2 -15z m1189 -5 c-28 -12 -37 -12 -30 0 3 6 16 10 28 9 21
0 21 -1 2 -9z m-2925 -10 c0 -5 -2 -10 -4 -10 -3 0 -8 5 -11 10 -3 6 -1 10 4
10 6 0 11 -4 11 -10z m913 0 c7 0 5 -6 -3 -15 -11 -10 -26 -13 -55 -8 l-40 6
30 13 c17 7 36 11 43 9 8 -3 19 -5 25 -5z m-443 -4 c0 -3 -4 -8 -10 -11 -5 -3
-10 -1 -10 4 0 6 5 11 10 11 6 0 10 -2 10 -4z m680 -6 c0 -5 -4 -10 -10 -10
-5 0 -10 5 -10 10 0 6 5 10 10 10 6 0 10 -4 10 -10z m215 0 c-3 -5 -18 -10
-33 -9 l-27 1 25 8 c35 11 42 11 35 0z m-905 -59 c0 -10 -7 -6 -18 12 -9 15
-20 27 -24 27 -5 0 -8 5 -8 12 0 6 11 1 25 -12 14 -13 25 -31 25 -39z m1380
27 c8 -18 14 -39 15 -47 0 -8 14 -19 32 -25 17 -6 35 -14 39 -19 13 -12 -59 4
-85 20 -14 9 -35 13 -53 9 -35 -7 -120 14 -114 29 2 5 -4 19 -13 30 -9 12 -10
15 -1 8 8 -7 31 -13 52 -13 21 0 38 -4 38 -9 0 -5 14 -11 30 -13 32 -5 37 1
18 20 -8 8 -8 15 2 27 18 21 23 19 40 -17z m190 22 c0 -5 -5 -10 -11 -10 -5 0
-7 5 -4 10 3 6 8 10 11 10 2 0 4 -4 4 -10z m807 4 c-3 -3 -12 -4 -19 -1 -8 3
-5 6 6 6 11 1 17 -2 13 -5z m-2752 -14 c3 -5 2 -10 -4 -10 -5 0 -13 5 -16 10
-3 6 -2 10 4 10 5 0 13 -4 16 -10z m94 1 c9 -6 3 -10 -22 -13 -25 -3 -33 0
-30 9 6 15 32 17 52 4z m1081 -1 c-8 -5 -26 -9 -40 -9 -23 1 -23 2 5 9 43 11
52 11 35 0z m303 4 c77 -7 98 -23 47 -35 -36 -9 -170 -8 -200 1 -14 5 -18 8
-9 9 9 1 22 8 29 16 14 17 26 18 133 9z m-1316 -23 c2 -18 -1 -19 -23 -9 -30
14 -31 28 -1 28 15 0 23 -6 24 -19z m342 -42 c2 -8 11 -20 19 -28 13 -13 12
-16 -12 -24 -14 -5 -26 -13 -26 -18 0 -13 24 -11 37 2 12 12 53 3 53 -12 0 -5
7 -9 15 -9 8 0 15 -5 15 -11 0 -6 14 -22 30 -36 28 -23 43 -52 20 -38 -6 4
-17 1 -25 -5 -18 -15 -42 1 -55 35 -7 17 -9 15 -9 -12 -1 -38 -9 -41 -38 -13
-23 21 -21 60 4 60 8 0 11 5 8 10 -4 6 -23 7 -47 4 -41 -7 -41 -7 -34 20 5 20
4 26 -5 20 -9 -5 -10 -2 -5 11 4 11 2 22 -6 27 -11 6 -10 10 1 17 11 7 11 10
0 17 -7 4 -14 3 -17 -4 -2 -7 -10 -12 -18 -12 -8 0 -17 -7 -20 -15 -4 -8 -11
-15 -16 -15 -7 0 -7 4 -1 13 6 6 13 24 17 39 l6 27 52 -19 c29 -10 54 -24 57
-31z m-395 -4 c32 -28 25 -35 -22 -24 -20 5 -56 9 -79 9 -23 0 -50 3 -60 7
-14 6 -10 10 22 19 60 18 110 14 139 -11z m962 -4 c-10 -16 -41 -14 -55 3 -10
12 -7 15 16 18 32 4 48 -5 39 -21z m-828 3 c21 -15 32 -42 12 -29 -5 3 -10 1
-10 -4 0 -6 -4 -11 -10 -11 -5 0 -10 9 -10 20 0 10 -8 24 -17 29 -15 8 -15 10
-3 11 9 0 26 -7 38 -16z m747 -12 c6 -4 11 -15 11 -24 1 -13 -2 -15 -14 -9 -8
5 -28 5 -43 1 -15 -5 -30 -5 -34 -2 -4 4 -13 -2 -21 -12 -12 -18 -14 -18 -14
-3 0 10 12 22 28 28 15 6 34 15 42 19 19 11 32 12 45 2z m-605 -37 c0 -8 -4
-15 -10 -15 -5 0 -10 7 -10 15 0 8 5 15 10 15 6 0 10 -7 10 -15z m5963 8 c2
-5 7 -21 11 -37 6 -25 4 -28 -12 -24 -10 3 -26 0 -35 -7 -17 -12 -77 -8 -77 5
0 23 21 59 37 63 30 8 72 7 76 0z m-1592 -23 c28 -22 24 -24 -19 -9 -18 6 -29
15 -26 20 8 14 19 11 45 -11z m999 -20 c-22 -20 -44 -30 -64 -30 -29 1 -28 3
24 30 71 37 82 37 40 0z m-4604 -5 c24 -15 34 -55 13 -55 -5 0 -7 -5 -4 -10 4
-6 11 -8 16 -4 7 4 9 -5 7 -22 -2 -22 -9 -30 -27 -32 -19 -3 -22 0 -18 12 5
12 -1 19 -17 26 -26 9 -66 67 -66 95 0 15 6 17 36 12 20 -3 47 -13 60 -22z
m5049 16 c3 -6 -2 -14 -12 -19 -14 -9 -15 -13 -4 -26 11 -13 11 -16 -2 -16 -9
0 -19 5 -22 10 -5 8 -11 8 -19 1 -10 -8 -18 -5 -32 10 -16 17 -16 22 -4 29 8
5 22 7 32 4 9 -2 19 0 23 6 8 13 32 13 40 1z m-3375 -11 c12 -8 11 -10 -7 -10
-13 0 -23 5 -23 10 0 13 11 13 30 0z m2001 -18 c-7 -2 -18 1 -23 6 -8 8 -4 9
13 5 13 -4 18 -8 10 -11z m69 8 c0 -5 -5 -10 -11 -10 -5 0 -7 5 -4 10 3 6 8
10 11 10 2 0 4 -4 4 -10z m925 0 c3 -5 -1 -10 -9 -10 -9 0 -16 5 -16 10 0 6 4
10 9 10 6 0 13 -4 16 -10z m-2852 -40 c4 -16 2 -18 -12 -11 -9 5 -25 19 -35
30 l-19 21 30 -11 c17 -5 33 -19 36 -29z m-3028 20 c-3 -5 -13 -10 -21 -10 -8
0 -14 5 -14 10 0 6 9 10 21 10 11 0 17 -4 14 -10z m816 -10 l24 -19 -37 -1
c-36 0 -50 15 -31 33 10 11 19 8 44 -13z m3929 10 c0 -5 -4 -10 -10 -10 -5 0
-10 5 -10 10 0 6 5 10 10 10 6 0 10 -4 10 -10z m-4895 -30 c-5 -8 -11 -8 -17
-2 -6 6 -7 16 -3 22 5 8 11 8 17 2 6 -6 7 -16 3 -22z m1653 5 c-6 -14 -13 -23
-15 -21 -5 5 15 46 22 46 3 0 -1 -11 -7 -25z m3264 3 c-7 -7 -12 -8 -12 -2 0
14 12 26 19 19 2 -3 -1 -11 -7 -17z m1388 12 c0 -5 -4 -10 -10 -10 -5 0 -10 5
-10 10 0 6 5 10 10 10 6 0 10 -4 10 -10z m-5056 -15 c8 -23 -22 -79 -50 -92
-21 -10 -28 -8 -54 15 -17 15 -30 33 -30 42 0 12 -2 12 -9 1 -6 -9 -11 -10
-15 -2 -11 17 3 31 30 31 13 0 24 4 24 8 0 4 22 9 49 10 36 1 50 -2 55 -13z
m681 -8 c-10 -8 -15 -19 -11 -25 4 -7 4 -12 -1 -13 -4 0 -18 -2 -30 -5 -16 -3
-23 1 -23 11 0 8 5 15 11 15 6 0 17 7 25 15 9 8 23 15 32 15 13 0 13 -2 -3
-13z m3045 5 c0 -14 -11 -21 -26 -15 -8 3 -11 9 -8 14 7 11 34 12 34 1z m1386
-29 c-11 -11 -17 4 -9 23 7 18 8 18 11 1 2 -10 1 -21 -2 -24z m-6026 12 c0 -8
-2 -15 -4 -15 -2 0 -6 7 -10 15 -3 8 -1 15 4 15 6 0 10 -7 10 -15z m4660 -5
c0 -5 -4 -10 -10 -10 -5 0 -10 5 -10 10 0 6 5 10 10 10 6 0 10 -4 10 -10z
m-3142 -39 c3 -8 -1 -12 -9 -9 -7 2 -15 10 -17 17 -3 8 1 12 9 9 7 -2 15 -10
17 -17z m112 9 c-20 -13 -43 -13 -35 0 3 6 16 10 28 10 18 0 19 -2 7 -10z
m945 -8 c-3 -3 -11 0 -18 7 -9 10 -8 11 6 5 10 -3 15 -9 12 -12z m2885 8 c0
-5 -2 -10 -4 -10 -3 0 -8 5 -11 10 -3 6 -1 10 4 10 6 0 11 -4 11 -10z m-5490
-10 c0 -5 -2 -10 -4 -10 -3 0 -8 5 -11 10 -3 6 -1 10 4 10 6 0 11 -4 11 -10z
m608 -15 c-3 -3 -9 2 -12 12 -6 14 -5 15 5 6 7 -7 10 -15 7 -18z m892 9 c0
-17 -22 -14 -28 4 -2 7 3 12 12 12 9 0 16 -7 16 -16z m-1430 -4 c0 -5 -2 -10
-4 -10 -3 0 -8 5 -11 10 -3 6 -1 10 4 10 6 0 11 -4 11 -10z m-205 -10 c-3 -5
-10 -10 -16 -10 -5 0 -9 5 -9 10 0 6 7 10 16 10 8 0 12 -4 9 -10z m5800 0 c3
-5 -1 -10 -9 -10 -9 0 -16 5 -16 10 0 6 4 10 9 10 6 0 13 -4 16 -10z"/>
<path d="M4990 1506 c0 -2 16 -6 35 -8 19 -2 35 0 35 4 0 4 -16 8 -35 8 -19 0
-35 -2 -35 -4z"/>
<path d="M4895 1490 c-3 -5 -2 -10 4 -10 5 0 13 5 16 10 3 6 2 10 -4 10 -5 0
-13 -4 -16 -10z"/>
<path d="M4937 1473 c-4 -3 -7 -15 -7 -25 0 -11 -4 -17 -9 -13 -5 3 -13 1 -16
-5 -5 -8 -12 -7 -23 2 -12 11 -16 11 -20 -1 -4 -13 -24 -32 -67 -66 -19 -15
-18 -15 20 -9 22 4 51 12 65 20 14 7 46 16 73 19 36 5 51 12 64 31 14 22 14
27 2 35 -19 12 -42 11 -34 -1 3 -5 -1 -10 -9 -10 -10 0 -13 6 -10 15 6 15 -16
21 -29 8z"/>
<path d="M4540 1265 c7 -8 21 -15 32 -15 17 0 18 3 8 15 -7 8 -21 15 -32 15
-17 0 -18 -3 -8 -15z"/>
<path d="M6316 1601 c-19 -21 -12 -28 13 -12 7 5 12 14 9 21 -2 7 -10 4 -22
-9z"/>
<path d="M6220 1572 l-34 -29 31 -1 c23 0 36 6 47 23 14 21 12 35 -4 35 -3 0
-21 -13 -40 -28z"/>
<path d="M4260 1061 c0 -5 7 -12 16 -15 14 -5 15 -4 4 9 -14 17 -20 19 -20 6z"/>
<path d="M3875 820 c-3 -5 -1 -10 4 -10 6 0 11 5 11 10 0 6 -2 10 -4 10 -3 0
-8 -4 -11 -10z"/>
<path d="M3030 563 c0 -15 19 -37 26 -31 3 4 -1 14 -10 23 -9 9 -16 13 -16 8z"/>
<path d="M840 550 c0 -6 7 -10 15 -10 8 0 15 2 15 4 0 2 -7 6 -15 10 -8 3 -15
1 -15 -4z"/>
<path d="M1037 390 c6 -22 23 -38 23 -21 0 17 -12 41 -20 41 -5 0 -6 -9 -3
-20z"/>
<path d="M825 410 c3 -5 8 -10 11 -10 2 0 4 5 4 10 0 6 -5 10 -11 10 -5 0 -7
-4 -4 -10z"/>
<path d="M2918 3263 c7 -3 16 -2 19 1 4 3 -2 6 -13 5 -11 0 -14 -3 -6 -6z"/>
<path d="M6870 3150 c-9 -6 -10 -10 -3 -10 6 0 15 5 18 10 8 12 4 12 -15 0z"/>
<path d="M430 3051 c0 -4 9 -20 21 -35 19 -24 18 -31 -3 -27 -10 1 -10 2 1
-36 7 -24 6 -41 -4 -61 -22 -43 -10 -72 31 -72 18 0 36 -6 41 -12 4 -8 12 8
18 42 8 42 15 55 28 54 18 -2 22 13 8 35 -6 10 -10 10 -16 1 -6 -9 -10 -9 -16
1 -14 22 -11 29 12 26 12 -1 24 4 26 11 3 8 -7 12 -31 12 -20 0 -36 5 -36 10
0 6 -11 15 -25 20 -14 5 -28 17 -31 25 -7 16 -24 21 -24 6z m80 -132 c0 -11
-4 -18 -10 -14 -5 3 -7 12 -3 20 7 21 13 19 13 -6z"/>
<path d="M497 3044 c-10 -11 2 -24 17 -18 9 3 16 -2 18 -13 2 -12 6 -14 11 -6
4 6 0 19 -9 27 -17 17 -27 20 -37 10z"/>
<path d="M6222 3025 c0 -16 2 -22 5 -12 2 9 2 23 0 30 -3 6 -5 -1 -5 -18z"/>
<path d="M6741 3034 c0 -11 3 -14 6 -6 3 7 2 16 -1 19 -3 4 -6 -2 -5 -13z"/>
<path d="M6245 3030 c3 -5 8 -10 11 -10 2 0 4 5 4 10 0 6 -5 10 -11 10 -5 0
-7 -4 -4 -10z"/>
<path d="M7046 3015 c4 -8 11 -15 16 -15 6 0 5 6 -2 15 -7 8 -14 15 -16 15 -2
0 -1 -7 2 -15z"/>
<path d="M4030 2990 c-13 -9 -13 -11 0 -19 17 -12 30 -5 30 15 0 16 -9 18 -30
4z"/>
<path d="M3935 2979 c-12 -19 3 -22 27 -5 l22 16 -21 0 c-12 0 -25 -5 -28 -11z"/>
<path d="M4112 2981 c2 -7 7 -12 11 -12 12 1 9 15 -3 20 -7 2 -11 -2 -8 -8z"/>
<path d="M6240 2973 c-13 -15 -12 -16 4 -10 10 4 20 7 22 7 2 0 4 5 4 10 0 15
-13 12 -30 -7z"/>
<path d="M6191 2954 c0 -11 3 -14 6 -6 3 7 2 16 -1 19 -3 4 -6 -2 -5 -13z"/>
<path d="M2930 2956 c0 -2 9 -6 20 -9 11 -3 18 -1 14 4 -5 9 -34 13 -34 5z"/>
<path d="M6255 2938 c-5 -13 -16 -23 -24 -23 -8 0 -18 -7 -24 -16 -11 -18 -3
-49 12 -49 6 0 8 7 5 15 -5 11 -2 13 10 9 10 -4 16 -1 16 9 0 8 5 17 11 19 6
2 9 16 7 32 -3 27 -3 27 -13 4z"/>
<path d="M2944 2928 c3 -10 1 -18 -4 -18 -6 0 -10 -7 -10 -15 0 -7 -8 -19 -17
-25 -13 -8 -14 -13 -5 -16 6 -3 12 -14 12 -24 0 -10 4 -21 8 -24 4 -2 6 12 4
32 -4 31 -2 35 10 25 11 -10 20 -7 43 13 17 14 22 23 13 20 -13 -4 -15 -1 -11
11 5 12 2 15 -10 10 -10 -4 -21 1 -27 11 -11 16 -11 16 -6 0z"/>
<path d="M6748 2924 c-5 -4 -8 -18 -8 -31 0 -12 -4 -23 -10 -23 -5 0 -10 4
-10 10 0 5 -7 7 -15 4 -12 -5 -13 -10 -4 -20 12 -15 4 -34 -16 -34 -7 0 -16
-7 -19 -16 -4 -9 -13 -14 -21 -10 -10 3 -15 -1 -15 -12 0 -9 -9 -23 -20 -30
-12 -7 -20 -8 -20 -2 0 24 -20 7 -21 -17 -1 -21 -2 -23 -6 -8 -3 11 -9 24 -14
29 -4 5 -4 17 1 27 12 21 -6 37 -23 20 -7 -7 -14 -7 -23 0 -7 6 -18 8 -23 4
-16 -9 17 -55 35 -48 16 6 18 -14 4 -37 -7 -11 -11 -9 -19 12 -5 14 -15 28
-22 30 -6 2 -11 16 -11 31 0 31 -13 35 -27 8 -6 -10 -24 -21 -41 -24 -16 -4
-30 -11 -30 -17 0 -6 10 -8 25 -4 21 5 25 3 25 -17 0 -19 -2 -21 -10 -9 -7 11
-12 12 -21 3 -9 -9 -18 -9 -31 -2 -11 6 -22 8 -26 5 -3 -3 0 -6 6 -6 7 0 26
-23 43 -50 17 -28 36 -49 42 -47 7 2 22 -7 36 -19 22 -21 62 -26 78 -11 8 9
43 -22 43 -38 0 -7 -9 -23 -20 -36 l-19 -24 -7 33 c-3 17 -10 32 -15 32 -5 0
-2 -16 6 -36 8 -20 15 -45 15 -55 0 -14 7 -19 29 -19 28 0 46 -20 42 -47 -1
-7 18 -15 44 -19 l45 -6 -6 -52 c-7 -47 -6 -50 9 -37 10 8 27 11 43 7 43 -11
67 2 61 32 -3 17 1 31 11 39 16 11 16 12 0 13 -21 0 -25 20 -4 20 7 0 19 6 25
14 10 11 8 16 -9 21 -16 5 -19 10 -10 20 8 10 7 16 -5 23 -14 7 -18 27 -20 93
-1 46 -7 113 -13 149 -14 87 -11 123 11 132 24 10 13 28 -12 21 -14 -4 -20 1
-23 17 -2 12 -6 18 -10 14z m-138 -214 c0 -5 -4 -10 -10 -10 -5 0 -10 5 -10
10 0 6 5 10 10 10 6 0 10 -4 10 -10z m60 -20 c0 -5 -12 -10 -27 -9 -25 0 -26
1 -8 9 27 12 35 12 35 0z m-40 -60 c0 -5 -4 -10 -10 -10 -5 0 -10 5 -10 10 0
6 5 10 10 10 6 0 10 -4 10 -10z m3 -50 c-3 -11 -9 -20 -14 -20 -10 0 -12 24
-2 33 13 13 21 7 16 -13z m-7 -51 c7 -11 -22 -47 -30 -38 -8 7 5 49 15 49 4 0
11 -5 15 -11z m74 -59 c-6 -11 -15 -20 -20 -20 -16 0 -11 18 8 29 24 14 24 14
12 -9z"/>
<path d="M6476 2877 c-11 -8 -15 -17 -10 -20 14 -8 37 8 33 22 -3 8 -10 8 -23
-2z"/>
<path d="M2990 2860 c0 -5 5 -10 10 -10 6 0 10 5 10 10 0 6 -4 10 -10 10 -5 0
-10 -4 -10 -10z"/>
<path d="M3940 2855 c-10 -12 -10 -15 4 -15 9 0 16 7 16 15 0 8 -2 15 -4 15
-2 0 -9 -7 -16 -15z"/>
<path d="M4012 2853 c2 -10 14 -19 26 -21 21 -3 22 -1 12 17 -13 26 -43 28
-38 4z"/>
<path d="M6670 2850 c0 -5 5 -10 11 -10 5 0 7 5 4 10 -3 6 -8 10 -11 10 -2 0
-4 -4 -4 -10z"/>
<path d="M6790 2850 c0 -5 7 -7 15 -4 8 4 15 8 15 10 0 2 -7 4 -15 4 -8 0 -15
-4 -15 -10z"/>
<path d="M406 2825 c-9 -26 -7 -32 5 -12 6 10 9 21 6 23 -2 3 -7 -2 -11 -11z"/>
<path d="M6235 2831 c-18 -8 -16 -11 17 -25 47 -20 45 -20 43 7 -2 24 -27 32
-60 18z"/>
<path d="M115 2820 c-3 -5 1 -10 10 -10 9 0 13 5 10 10 -3 6 -8 10 -10 10 -2
0 -7 -4 -10 -10z"/>
<path d="M4080 2815 c0 -8 2 -15 4 -15 2 0 6 7 10 15 3 8 1 15 -4 15 -6 0 -10
-7 -10 -15z"/>
<path d="M168 2813 c7 -3 16 -2 19 1 4 3 -2 6 -13 5 -11 0 -14 -3 -6 -6z"/>
<path d="M3933 2813 c-18 -6 -16 -48 2 -63 12 -10 18 -10 30 0 8 7 15 15 15
19 -1 15 -36 48 -47 44z"/>
<path d="M2970 2790 c0 -6 -4 -9 -8 -6 -4 2 -14 1 -22 -4 -12 -7 -11 -12 3
-28 10 -10 15 -26 12 -33 -3 -8 1 -23 8 -33 11 -15 17 -17 35 -7 18 10 21 9
16 -4 -4 -8 -2 -15 4 -15 24 0 20 63 -8 120 -9 18 -40 26 -40 10z"/>
<path d="M3998 2770 c-3 -17 -1 -33 4 -36 4 -3 8 -17 8 -32 0 -23 -4 -27 -28
-26 -16 0 -33 4 -39 7 -6 4 -13 -1 -16 -11 -2 -9 -8 -24 -11 -33 -7 -17 16
-30 61 -33 25 -2 40 23 22 35 -8 5 -6 8 7 11 14 2 19 13 21 43 1 22 3 53 5 70
4 43 -28 48 -34 5z"/>
<path d="M4090 2781 c0 -6 5 -13 10 -16 6 -3 10 1 10 9 0 9 -4 16 -10 16 -5 0
-10 -4 -10 -9z"/>
<path d="M6061 2766 c-9 -10 -8 -15 4 -20 8 -3 15 -4 15 -2 0 3 3 11 6 20 8
20 -9 21 -25 2z"/>
<path d="M6213 2725 c3 -24 0 -35 -9 -35 -17 0 -23 -21 -12 -43 5 -9 6 -22 2
-28 -3 -6 17 1 45 16 l51 25 -15 30 c-9 18 -11 31 -5 35 15 9 12 25 -4 19 -8
-3 -17 -1 -21 5 -3 6 -13 11 -21 11 -11 0 -13 -9 -11 -35z"/>
<path d="M2505 2740 c-3 -5 -1 -10 4 -10 6 0 11 5 11 10 0 6 -2 10 -4 10 -3 0
-8 -4 -11 -10z"/>
<path d="M4072 2733 c-6 -13 -4 -23 9 -35 16 -15 18 -15 23 5 3 12 6 28 6 35
0 18 -28 15 -38 -5z"/>
<path d="M5936 2727 c-4 -16 -12 -24 -23 -23 -22 1 -19 -32 5 -52 16 -13 16
-13 0 -8 -11 3 -18 0 -18 -7 0 -7 31 -20 73 -31 39 -9 80 -20 91 -23 11 -3 16
-1 12 5 -3 6 0 12 6 15 7 2 18 -5 24 -17 10 -17 12 -12 15 36 l4 56 -54 -4
c-30 -2 -59 -8 -65 -14 -16 -16 -21 -12 -23 23 -2 26 0 29 8 15 10 -19 44 -24
53 -9 8 13 -36 48 -70 55 -28 6 -32 4 -38 -17z m29 -97 c3 -5 2 -10 -4 -10 -5
0 -13 5 -16 10 -3 6 -2 10 4 10 5 0 13 -4 16 -10z m83 -4 c-10 -7 -16 -15 -13
-18 3 -2 -9 -2 -26 0 -36 5 -27 19 16 25 17 2 32 5 35 5 3 1 -3 -5 -12 -12z"/>
<path d="M6090 2710 c0 -11 4 -20 9 -20 5 0 7 9 4 20 -3 11 -7 20 -9 20 -2 0
-4 -9 -4 -20z"/>
<path d="M3903 2712 c-6 -4 -14 -32 -17 -62 l-6 -55 20 55 c22 58 22 74 3 62z"/>
<path d="M3980 2710 c0 -5 5 -10 10 -10 6 0 10 5 10 10 0 6 -4 10 -10 10 -5 0
-10 -4 -10 -10z"/>
<path d="M547 2673 l-38 -4 40 -30 c23 -16 41 -34 41 -39 0 -16 17 -12 24 6 3
8 -1 22 -10 31 -8 9 -13 22 -10 29 3 8 2 13 -2 12 -4 -1 -24 -3 -45 -5z"/>
<path d="M370 2660 c-24 -8 -24 -8 7 -9 18 -1 44 -6 58 -13 22 -10 28 -9 36 3
5 8 9 17 9 22 0 9 -77 7 -110 -3z"/>
<path d="M4050 2647 c0 -31 22 -77 38 -77 15 0 15 10 2 46 -7 19 -7 30 1 40 9
11 6 14 -15 14 -20 0 -26 -5 -26 -23z"/>
<path d="M3320 2626 c0 -8 5 -18 10 -21 6 -3 10 1 10 9 0 8 -4 18 -10 21 -5 3
-10 -1 -10 -9z"/>
<path d="M5868 2633 c7 -3 16 -2 19 1 4 3 -2 6 -13 5 -11 0 -14 -3 -6 -6z"/>
<path d="M3015 2620 c-3 -5 -1 -10 4 -10 6 0 11 -9 11 -21 0 -11 -4 -17 -10
-14 -5 3 -10 1 -10 -4 0 -18 35 -13 35 4 0 6 4 15 8 22 5 7 0 16 -12 23 -13 7
-22 7 -26 0z"/>
<path d="M2540 2595 c0 -14 5 -25 11 -25 6 0 9 6 6 14 -3 8 -1 16 6 19 6 2 4
6 -6 10 -13 5 -17 1 -17 -18z"/>
<path d="M2589 2602 c-15 -15 -15 -19 -3 -30 12 -11 18 -10 33 10 14 16 16 25
8 30 -16 10 -19 9 -38 -10z"/>
<path d="M3870 2565 c0 -8 2 -15 4 -15 2 0 6 7 10 15 3 8 1 15 -4 15 -6 0 -10
-7 -10 -15z"/>
<path d="M1396 2528 c6 -20 5 -21 -10 -9 -14 12 -16 10 -16 -18 0 -21 4 -30
11 -25 8 4 8 0 0 -15 -8 -14 -8 -21 -1 -21 6 0 15 12 21 28 6 15 15 34 19 43
5 10 4 21 -3 28 -18 18 -29 13 -21 -11z"/>
<path d="M2450 2518 c0 -20 5 -40 10 -43 6 -3 10 -2 10 4 0 5 2 15 5 23 3 7
-1 22 -9 33 -15 19 -15 18 -16 -17z"/>
<path d="M2540 2540 c0 -5 5 -10 10 -10 26 0 5 -33 -31 -49 -32 -15 -38 -20
-23 -24 12 -3 7 -5 -12 -6 -31 -1 -44 -15 -44 -46 0 -8 15 -17 35 -21 30 -5
38 -3 56 20 11 14 29 26 39 26 20 0 36 16 21 22 -5 1 -11 21 -13 43 -3 37 -12
54 -30 55 -5 0 -8 -4 -8 -10z"/>
<path d="M4327 2534 c-4 -4 -7 -17 -7 -28 1 -19 1 -20 11 -3 11 19 8 43 -4 31z"/>
<path d="M5800 2530 c0 -5 5 -10 10 -10 6 0 10 5 10 10 0 6 -4 10 -10 10 -5 0
-10 -4 -10 -10z"/>
<path d="M465 2510 c4 -6 11 -8 16 -5 14 9 11 15 -7 15 -8 0 -12 -5 -9 -10z"/>
<path d="M6142 2464 c-16 -11 -36 -14 -70 -10 -37 5 -41 4 -17 -3 17 -5 49
-11 73 -14 39 -5 42 -3 42 19 0 28 1 28 -28 8z"/>
<path d="M950 2455 c-20 -24 -6 -28 15 -5 10 11 13 20 8 20 -6 0 -16 -7 -23
-15z"/>
<path d="M6878 2453 c7 -3 16 -2 19 1 4 3 -2 6 -13 5 -11 0 -14 -3 -6 -6z"/>
<path d="M3320 2441 c0 -6 4 -13 10 -16 6 -3 7 1 4 9 -7 18 -14 21 -14 7z"/>
<path d="M4311 2418 c-1 -20 4 -40 9 -43 12 -7 12 19 0 55 -7 22 -8 21 -9 -12z"/>
<path d="M5000 2420 c0 -5 5 -10 10 -10 6 0 10 5 10 10 0 6 -4 10 -10 10 -5 0
-10 -4 -10 -10z"/>
<path d="M2405 2410 c3 -5 8 -10 11 -10 2 0 4 5 4 10 0 6 -5 10 -11 10 -5 0
-7 -4 -4 -10z"/>
<path d="M2566 2402 c-7 -11 27 -152 37 -152 7 0 5 28 -9 100 -3 19 -2 21 5
10 15 -22 23 -6 12 24 -10 25 -34 35 -45 18z"/>
<path d="M4960 2397 c-28 -13 -41 -27 -34 -39 3 -4 -2 -5 -10 -2 -10 4 -16 1
-16 -10 0 -20 42 -31 67 -18 12 7 20 23 21 46 2 20 1 36 0 35 -2 0 -14 -6 -28
-12z"/>
<path d="M5010 2390 c0 -5 5 -10 10 -10 6 0 10 5 10 10 0 6 -4 10 -10 10 -5 0
-10 -4 -10 -10z"/>
<path d="M1048 2373 c7 -3 16 -2 19 1 4 3 -2 6 -13 5 -11 0 -14 -3 -6 -6z"/>
<path d="M2370 2370 c0 -5 7 -7 15 -4 8 4 15 8 15 10 0 2 -7 4 -15 4 -8 0 -15
-4 -15 -10z"/>
<path d="M365 2360 c3 -5 2 -17 -3 -26 -13 -23 78 -115 110 -113 17 1 19 2 6
6 -20 5 -25 23 -7 23 8 0 8 4 0 14 -8 10 -9 16 -1 21 13 8 3 25 -15 25 -8 0
-12 -6 -9 -14 3 -7 -1 -16 -9 -19 -10 -4 -14 2 -14 20 0 14 -5 28 -10 32 -5 3
-12 14 -16 24 -3 9 -14 17 -22 17 -9 0 -13 -4 -10 -10z"/>
<path d="M2407 2343 c-12 -11 -7 -25 6 -20 10 4 14 -5 15 -31 2 -35 22 -62 46
-62 6 0 4 5 -4 11 -11 8 -7 9 18 4 17 -4 46 -3 64 0 28 7 29 8 12 18 -33 17
-72 61 -67 74 4 9 -7 13 -39 13 -25 0 -48 -3 -51 -7z"/>
<path d="M4300 2337 c0 -11 -6 -33 -14 -50 -8 -18 -16 -45 -19 -62 -2 -16 -7
-37 -11 -46 -5 -11 -1 -19 10 -23 22 -9 42 10 27 25 -12 12 1 75 18 94 12 12
11 46 -1 65 -8 13 -10 12 -10 -3z"/>
<path d="M1086 2324 c-12 -30 -6 -53 15 -59 13 -4 18 -12 15 -21 -3 -8 -2 -12
3 -9 10 6 8 51 -2 62 -4 3 -7 1 -7 -5 0 -7 -4 -12 -9 -12 -5 0 -8 14 -6 30 4
33 1 39 -9 14z"/>
<path d="M2345 2330 c-3 -5 -3 -10 1 -10 4 0 -1 -8 -10 -19 -16 -17 -16 -19 6
-25 38 -10 55 -7 55 9 0 8 -4 15 -8 15 -4 0 -11 9 -14 20 -7 22 -20 26 -30 10z"/>
<path d="M4171 2293 c-7 -8 -11 -16 -8 -19 2 -2 10 2 17 11 17 20 9 27 -9 8z"/>
<path d="M5423 2294 c0 -16 13 -19 21 -5 3 5 0 11 -7 14 -8 3 -14 -1 -14 -9z"/>
<path d="M1020 2290 c0 -5 5 -10 11 -10 5 0 7 5 4 10 -3 6 -8 10 -11 10 -2 0
-4 -4 -4 -10z"/>
<path d="M1055 2280 c3 -5 8 -10 11 -10 2 0 4 5 4 10 0 6 -5 10 -11 10 -5 0
-7 -4 -4 -10z"/>
<path d="M4095 2280 c-8 -13 -1 -24 14 -19 6 3 7 10 2 18 -6 10 -10 10 -16 1z"/>
<path d="M5430 2250 c-13 -8 -12 -10 3 -10 9 0 17 5 17 10 0 12 -1 12 -20 0z"/>
<path d="M2240 2236 c0 -9 5 -16 10 -16 6 0 10 4 10 9 0 6 -4 13 -10 16 -5 3
-10 -1 -10 -9z"/>
<path d="M4163 2244 c-19 -8 -3 -34 21 -34 16 0 18 2 7 9 -7 5 -10 14 -7 20 7
11 0 13 -21 5z"/>
<path d="M2294 2225 c11 -8 25 -15 30 -15 6 0 2 7 -8 15 -11 8 -25 15 -30 15
-6 0 -2 -7 8 -15z"/>
<path d="M2083 2194 c-7 -19 0 -26 21 -18 20 8 21 20 1 28 -9 3 -18 -1 -22
-10z"/>
<path d="M3150 2200 c0 -5 5 -10 11 -10 5 0 7 5 4 10 -3 6 -8 10 -11 10 -2 0
-4 -4 -4 -10z"/>
<path d="M5490 2180 c0 -5 5 -10 10 -10 6 0 10 5 10 10 0 6 -4 10 -10 10 -5 0
-10 -4 -10 -10z"/>
<path d="M6220 2161 c-7 -15 -7 -21 0 -21 12 0 25 28 17 36 -3 3 -10 -4 -17
-15z"/>
<path d="M2485 2160 c4 -6 11 -8 16 -5 14 9 11 15 -7 15 -8 0 -12 -5 -9 -10z"/>
<path d="M4185 2146 c-28 -12 -29 -13 -7 -18 14 -4 20 -2 15 5 -4 6 0 8 10 4
9 -3 19 -2 22 3 10 16 -9 18 -40 6z"/>
<path d="M4240 2130 c-10 -7 -11 -10 -2 -10 6 0 12 -5 12 -10 0 -6 -11 -8 -27
-4 -28 7 -28 7 -8 -12 11 -10 26 -26 33 -34 8 -8 11 -10 8 -3 -4 6 -1 24 4 39
12 31 2 48 -20 34z"/>
<path d="M4101 2082 c-16 -30 -14 -38 9 -38 11 0 18 5 16 11 -2 5 -9 9 -16 7
-11 -3 -11 0 0 13 7 8 10 18 7 21 -3 3 -10 -3 -16 -14z"/>
<path d="M4160 2069 c-13 -9 -13 -10 1 -6 13 4 15 1 11 -15 -3 -14 -1 -19 6
-14 13 8 17 46 5 46 -5 0 -15 -5 -23 -11z"/>
<path d="M3200 2048 c0 -9 5 -20 10 -23 13 -8 13 5 0 25 -8 13 -10 13 -10 -2z"/>
<path d="M4548 2053 c6 -2 18 -2 25 0 6 3 1 5 -13 5 -14 0 -19 -2 -12 -5z"/>
<path d="M795 2040 c-3 -5 -1 -10 4 -10 6 0 11 5 11 10 0 6 -2 10 -4 10 -3 0
-8 -4 -11 -10z"/>
<path d="M834 2034 c9 -8 16 -23 16 -31 0 -9 2 -14 5 -11 11 11 -7 58 -22 58
-12 0 -12 -2 1 -16z"/>
<path d="M4178 2023 c-27 -7 -22 -30 6 -30 18 0 22 4 19 18 -3 11 -6 18 -7 18
0 -1 -9 -3 -18 -6z"/>
<path d="M3721 1974 c0 -11 3 -14 6 -6 3 7 2 16 -1 19 -3 4 -6 -2 -5 -13z"/>
<path d="M4121 1971 c-8 -5 -10 -14 -6 -21 6 -10 12 -8 22 6 13 18 14 17 11
-11 -2 -22 -8 -29 -20 -27 -22 4 -23 -7 -2 -37 l16 -22 25 22 c25 24 29 76 6
72 -7 -2 -13 1 -13 6 0 5 6 12 13 14 6 3 1 6 -13 6 -14 0 -31 -3 -39 -8z"/>
<path d="M1722 1931 c-8 -23 -7 -31 4 -35 10 -4 14 3 14 29 0 43 -5 44 -18 6z"/>
<path d="M1786 1905 c-3 -9 -6 -26 -5 -38 1 -14 4 -9 9 13 9 37 7 52 -4 25z"/>
<path d="M3518 1888 c-14 -13 -23 -29 -21 -35 3 -7 -2 -13 -11 -13 -9 0 -16
-7 -16 -15 0 -22 13 -19 63 20 25 19 53 35 61 35 18 0 22 -36 5 -42 -22 -7 9
-48 36 -48 30 0 32 11 5 30 -20 14 -27 31 -12 29 20 -3 32 2 32 16 0 9 -6 12
-15 9 -8 -4 -17 1 -21 10 -3 8 -16 15 -27 14 -12 0 -29 2 -38 6 -11 5 -26 -1
-41 -16z"/>
<path d="M1030 1885 c0 -8 4 -15 10 -15 5 0 7 7 4 15 -4 8 -8 15 -10 15 -2 0
-4 -7 -4 -15z"/>
<path d="M1000 1855 c0 -16 16 -20 24 -6 3 5 -1 11 -9 15 -9 3 -15 0 -15 -9z"/>
<path d="M4155 1807 c-14 -11 -15 -16 -5 -22 11 -7 29 9 30 28 0 10 -3 9 -25
-6z"/>
<path d="M3163 1790 c-28 -11 -31 -30 -4 -23 30 8 37 -18 10 -40 l-24 -19 25
3 c17 3 26 11 28 27 2 12 8 20 13 17 20 -13 30 7 13 26 -19 21 -28 22 -61 9z"/>
<path d="M3528 1725 c4 -23 21 -33 35 -19 5 5 -27 44 -37 44 -2 0 -1 -11 2
-25z"/>
<path d="M1765 1710 c3 -5 13 -10 21 -10 8 0 14 5 14 10 0 6 -9 10 -21 10 -11
0 -17 -4 -14 -10z"/>
<path d="M1700 1701 c0 -6 4 -13 10 -16 6 -3 7 1 4 9 -7 18 -14 21 -14 7z"/>
<path d="M3468 1693 c7 -3 16 -2 19 1 4 3 -2 6 -13 5 -11 0 -14 -3 -6 -6z"/>
<path d="M3530 1675 c-10 -13 -9 -15 8 -15 15 0 20 5 16 15 -4 8 -7 15 -9 15
-1 0 -8 -7 -15 -15z"/>
<path d="M1525 1669 c-4 -6 -5 -13 -2 -16 7 -7 27 6 27 18 0 12 -17 12 -25 -2z"/>
<path d="M1798 1653 c7 -3 16 -2 19 1 4 3 -2 6 -13 5 -11 0 -14 -3 -6 -6z"/>
<path d="M1450 1631 c-23 -6 -23 -8 -6 -14 13 -5 25 -2 35 8 16 16 11 17 -29
6z"/>
<path d="M1480 1590 c0 -5 5 -10 11 -10 5 0 7 5 4 10 -3 6 -8 10 -11 10 -2 0
-4 -4 -4 -10z"/>
<path d="M1655 1560 c-8 -13 15 -13 35 0 12 8 11 10 -7 10 -12 0 -25 -4 -28
-10z"/>
<path d="M1787 1563 c-4 -3 -7 -11 -7 -17 0 -6 5 -5 12 2 6 6 9 14 7 17 -3 3
-9 2 -12 -2z"/>
<path d="M1708 1532 c-14 -6 -14 -10 -4 -25 12 -15 16 -16 39 -4 20 11 23 17
15 25 -13 13 -25 14 -50 4z"/>
<path d="M1880 1515 c0 -14 5 -25 10 -25 6 0 10 11 10 25 0 14 -4 25 -10 25
-5 0 -10 -11 -10 -25z"/>
<path d="M1613 1525 c4 -4 1 -15 -7 -24 -12 -14 -11 -18 10 -34 21 -15 24 -16
24 -2 0 10 10 15 28 15 l27 1 -23 12 c-12 7 -19 17 -15 22 4 4 2 5 -5 1 -7 -4
-21 -2 -30 5 -9 7 -14 9 -9 4z"/>
<path d="M1870 1392 c0 -13 -7 -25 -15 -28 -9 -4 -14 -18 -13 -40 1 -18 5 -31
9 -28 15 9 38 64 27 64 -6 0 -5 6 2 15 10 12 10 19 2 27 -9 9 -12 7 -12 -10z"/>
<path d="M1907 1384 c-7 -8 3 -76 14 -88 5 -5 15 -4 24 4 14 11 14 14 0 24 -8
6 -17 22 -20 35 -5 27 -9 33 -18 25z"/>
<path d="M2048 1335 c-3 -14 -1 -25 3 -25 5 0 9 11 9 25 0 14 -2 25 -4 25 -2
0 -6 -11 -8 -25z"/>
<path d="M1972 1305 c-26 -27 -22 -45 9 -45 15 0 19 7 19 35 0 19 -1 35 -2 35
-2 0 -13 -11 -26 -25z"/>
<path d="M2117 1303 c-3 -10 -5 -40 -6 -68 -1 -27 -4 -58 -7 -67 -3 -10 -1
-18 4 -18 5 0 12 37 15 82 6 79 4 109 -6 71z"/>
<path d="M1700 1270 c-12 -8 -10 -10 8 -10 13 0 20 4 17 10 -7 12 -6 12 -25 0z"/>
<path d="M1788 1273 c7 -3 16 -2 19 1 4 3 -2 6 -13 5 -11 0 -14 -3 -6 -6z"/>
<path d="M1739 1219 c21 -17 22 -22 10 -30 -11 -7 -9 -9 9 -9 12 0 22 5 22 11
0 14 -39 49 -54 49 -6 -1 0 -10 13 -21z"/>
<path d="M1915 1200 c-3 -5 -1 -10 4 -10 6 0 11 5 11 10 0 6 -2 10 -4 10 -3 0
-8 -4 -11 -10z"/>
<path d="M1690 1189 c0 -5 5 -7 10 -4 6 3 10 8 10 11 0 2 -4 4 -10 4 -5 0 -10
-5 -10 -11z"/>
<path d="M1905 1150 c-3 -5 -1 -10 4 -10 6 0 11 5 11 10 0 6 -2 10 -4 10 -3 0
-8 -4 -11 -10z"/>
<path d="M1760 1131 c0 -5 7 -11 15 -15 8 -3 15 -1 15 3 0 5 -7 11 -15 15 -8
3 -15 1 -15 -3z"/>
<path d="M2100 1131 c0 -5 5 -13 10 -16 6 -3 10 -2 10 4 0 5 -4 13 -10 16 -5
3 -10 2 -10 -4z"/>
<path d="M2336 1105 c-19 -30 -20 -35 -3 -35 16 0 47 32 47 48 0 21 -27 13
-44 -13z"/>
<path d="M1810 1090 c-9 -6 -10 -10 -3 -10 6 0 15 5 18 10 8 12 4 12 -15 0z"/>
<path d="M1715 1064 c9 -9 18 -14 21 -11 9 9 -6 27 -22 27 -13 0 -13 -2 1 -16z"/>
<path d="M1960 1055 c0 -8 5 -15 10 -15 6 0 10 7 10 15 0 8 -4 15 -10 15 -5 0
-10 -7 -10 -15z"/>
<path d="M1785 1010 c3 -5 14 -10 23 -10 15 0 15 2 2 10 -20 13 -33 13 -25 0z"/>
<path d="M1910 999 c0 -5 5 -7 10 -4 6 3 10 8 10 11 0 2 -4 4 -10 4 -5 0 -10
-5 -10 -11z"/>
<path d="M1738 969 c-13 -13 -14 -19 -5 -19 14 0 37 20 37 32 0 13 -14 8 -32
-13z"/>
<path d="M1738 933 c7 -3 16 -2 19 1 4 3 -2 6 -13 5 -11 0 -14 -3 -6 -6z"/>
<path d="M1640 714 c0 -8 5 -12 10 -9 6 4 8 11 5 16 -9 14 -15 11 -15 -7z"/>
<path d="M4170 80 c0 -5 5 -10 11 -10 5 0 7 5 4 10 -3 6 -8 10 -11 10 -2 0 -4
-4 -4 -10z"/>
<path d="M1938 3 c12 -2 30 -2 40 0 9 3 -1 5 -23 4 -22 0 -30 -2 -17 -4z"/>
</g>
</svg>
